<svg width="571" height="443" viewBox="0 0 571 443" fill="none" xmlns="http://www.w3.org/2000/svg">
<mask id="mask0_1255_12284" style="mask-type:alpha" maskUnits="userSpaceOnUse" x="56" y="0" width="292" height="334">
<g opacity="0.3">
<circle cx="58.67" cy="2.76846" r="2.66995" fill="white"/>
<circle cx="69.3499" cy="2.76846" r="2.66995" fill="white"/>
<circle cx="80.0296" cy="2.76846" r="2.66995" fill="white"/>
<circle cx="90.7095" cy="2.76846" r="2.66995" fill="white"/>
<circle cx="101.389" cy="2.76846" r="2.66995" fill="white"/>
<circle cx="112.069" cy="2.76846" r="2.66995" fill="white"/>
<circle cx="122.749" cy="2.76846" r="2.66995" fill="white"/>
<circle cx="58.67" cy="13.4483" r="2.66995" fill="white"/>
<circle cx="69.3499" cy="13.4483" r="2.66995" fill="white"/>
<circle cx="80.0296" cy="13.4483" r="2.66995" fill="white"/>
<circle cx="90.7095" cy="13.4483" r="2.66995" fill="white"/>
<circle cx="101.389" cy="13.4483" r="2.66995" fill="white"/>
<circle cx="112.069" cy="13.4483" r="2.66995" fill="white"/>
<circle cx="122.749" cy="13.4483" r="2.66995" fill="white"/>
<circle cx="58.67" cy="24.1281" r="2.66995" fill="white"/>
<circle cx="69.3499" cy="24.1281" r="2.66995" fill="white"/>
<circle cx="80.0296" cy="24.1281" r="2.66995" fill="white"/>
<circle cx="90.7095" cy="24.1281" r="2.66995" fill="white"/>
<circle cx="101.389" cy="24.1281" r="2.66995" fill="white"/>
<circle cx="112.069" cy="24.1281" r="2.66995" fill="white"/>
<circle cx="122.749" cy="24.1281" r="2.66995" fill="white"/>
<circle cx="58.67" cy="34.8079" r="2.66995" fill="white"/>
<circle cx="69.3499" cy="34.8079" r="2.66995" fill="white"/>
<circle cx="80.0296" cy="34.8079" r="2.66995" fill="white"/>
<circle cx="90.7095" cy="34.8079" r="2.66995" fill="white"/>
<circle cx="101.389" cy="34.8079" r="2.66995" fill="white"/>
<circle cx="112.069" cy="34.8079" r="2.66995" fill="white"/>
<circle cx="122.749" cy="34.8079" r="2.66995" fill="white"/>
<circle cx="58.67" cy="45.4877" r="2.66995" fill="white"/>
<circle cx="69.3499" cy="45.4877" r="2.66995" fill="white"/>
<circle cx="80.0296" cy="45.4877" r="2.66995" fill="white"/>
<circle cx="90.7095" cy="45.4877" r="2.66995" fill="white"/>
<circle cx="101.389" cy="45.4877" r="2.66995" fill="white"/>
<circle cx="112.069" cy="45.4877" r="2.66995" fill="white"/>
<circle cx="122.749" cy="45.4877" r="2.66995" fill="white"/>
<circle cx="58.67" cy="56.1675" r="2.66995" fill="white"/>
<circle cx="69.3499" cy="56.1675" r="2.66995" fill="white"/>
<circle cx="80.0296" cy="56.1675" r="2.66995" fill="white"/>
<circle cx="90.7095" cy="56.1675" r="2.66995" fill="white"/>
<circle cx="101.389" cy="56.1675" r="2.66995" fill="white"/>
<circle cx="112.069" cy="56.1675" r="2.66995" fill="white"/>
<circle cx="122.749" cy="56.1675" r="2.66995" fill="white"/>
<circle cx="58.67" cy="66.8473" r="2.66995" fill="white"/>
<circle cx="69.3499" cy="66.8473" r="2.66995" fill="white"/>
<circle cx="80.0296" cy="66.8473" r="2.66995" fill="white"/>
<circle cx="90.7095" cy="66.8473" r="2.66995" fill="white"/>
<circle cx="101.389" cy="66.8473" r="2.66995" fill="white"/>
<circle cx="112.069" cy="66.8473" r="2.66995" fill="white"/>
<circle cx="122.749" cy="66.8473" r="2.66995" fill="white"/>
<circle cx="58.67" cy="77.5271" r="2.66995" fill="white"/>
<circle cx="69.3499" cy="77.5271" r="2.66995" fill="white"/>
<circle cx="80.0296" cy="77.5271" r="2.66995" fill="white"/>
<circle cx="90.7095" cy="77.5271" r="2.66995" fill="white"/>
<circle cx="101.389" cy="77.5271" r="2.66995" fill="white"/>
<circle cx="112.069" cy="77.5271" r="2.66995" fill="white"/>
<circle cx="122.749" cy="77.5271" r="2.66995" fill="white"/>
</g>
<g opacity="0.3">
<circle cx="206.67" cy="2.66995" r="2.66995" fill="white"/>
<circle cx="217.35" cy="2.66995" r="2.66995" fill="white"/>
<circle cx="228.03" cy="2.66995" r="2.66995" fill="white"/>
<circle cx="238.71" cy="2.66995" r="2.66995" fill="white"/>
<circle cx="249.389" cy="2.66995" r="2.66995" fill="white"/>
<circle cx="260.069" cy="2.66995" r="2.66995" fill="white"/>
<circle cx="270.749" cy="2.66995" r="2.66995" fill="white"/>
<circle cx="206.67" cy="13.3497" r="2.66995" fill="white"/>
<circle cx="217.35" cy="13.3497" r="2.66995" fill="white"/>
<circle cx="228.03" cy="13.3497" r="2.66995" fill="white"/>
<circle cx="238.71" cy="13.3497" r="2.66995" fill="white"/>
<circle cx="249.389" cy="13.3497" r="2.66995" fill="white"/>
<circle cx="260.069" cy="13.3497" r="2.66995" fill="white"/>
<circle cx="270.749" cy="13.3497" r="2.66995" fill="white"/>
<circle cx="206.67" cy="24.0296" r="2.66995" fill="white"/>
<circle cx="217.35" cy="24.0296" r="2.66995" fill="white"/>
<circle cx="228.03" cy="24.0296" r="2.66995" fill="white"/>
<circle cx="238.71" cy="24.0296" r="2.66995" fill="white"/>
<circle cx="249.389" cy="24.0296" r="2.66995" fill="white"/>
<circle cx="260.069" cy="24.0296" r="2.66995" fill="white"/>
<circle cx="270.749" cy="24.0296" r="2.66995" fill="white"/>
<circle cx="206.67" cy="34.7094" r="2.66995" fill="white"/>
<circle cx="217.35" cy="34.7094" r="2.66995" fill="white"/>
<circle cx="228.03" cy="34.7094" r="2.66995" fill="white"/>
<circle cx="238.71" cy="34.7094" r="2.66995" fill="white"/>
<circle cx="249.389" cy="34.7094" r="2.66995" fill="white"/>
<circle cx="260.069" cy="34.7094" r="2.66995" fill="white"/>
<circle cx="270.749" cy="34.7094" r="2.66995" fill="white"/>
<circle cx="206.67" cy="45.3892" r="2.66995" fill="white"/>
<circle cx="217.35" cy="45.3892" r="2.66995" fill="white"/>
<circle cx="228.03" cy="45.3892" r="2.66995" fill="white"/>
<circle cx="238.71" cy="45.3892" r="2.66995" fill="white"/>
<circle cx="249.389" cy="45.3892" r="2.66995" fill="white"/>
<circle cx="260.069" cy="45.3892" r="2.66995" fill="white"/>
<circle cx="270.749" cy="45.3892" r="2.66995" fill="white"/>
<circle cx="206.67" cy="56.069" r="2.66995" fill="white"/>
<circle cx="217.35" cy="56.069" r="2.66995" fill="white"/>
<circle cx="228.03" cy="56.069" r="2.66995" fill="white"/>
<circle cx="238.71" cy="56.069" r="2.66995" fill="white"/>
<circle cx="249.389" cy="56.069" r="2.66995" fill="white"/>
<circle cx="260.069" cy="56.069" r="2.66995" fill="white"/>
<circle cx="270.749" cy="56.069" r="2.66995" fill="white"/>
<circle cx="206.67" cy="66.7488" r="2.66995" fill="white"/>
<circle cx="217.35" cy="66.7488" r="2.66995" fill="white"/>
<circle cx="228.03" cy="66.7488" r="2.66995" fill="white"/>
<circle cx="238.71" cy="66.7488" r="2.66995" fill="white"/>
<circle cx="249.389" cy="66.7488" r="2.66995" fill="white"/>
<circle cx="260.069" cy="66.7488" r="2.66995" fill="white"/>
<circle cx="270.749" cy="66.7488" r="2.66995" fill="white"/>
<circle cx="206.67" cy="77.4286" r="2.66995" fill="white"/>
<circle cx="217.35" cy="77.4286" r="2.66995" fill="white"/>
<circle cx="228.03" cy="77.4286" r="2.66995" fill="white"/>
<circle cx="238.71" cy="77.4286" r="2.66995" fill="white"/>
<circle cx="249.389" cy="77.4286" r="2.66995" fill="white"/>
<circle cx="260.069" cy="77.4286" r="2.66995" fill="white"/>
<circle cx="270.749" cy="77.4286" r="2.66995" fill="white"/>
</g>
<g opacity="0.3">
<circle cx="132.67" cy="2.76846" r="2.66995" fill="white"/>
<circle cx="143.35" cy="2.76846" r="2.66995" fill="white"/>
<circle cx="154.03" cy="2.76846" r="2.66995" fill="white"/>
<circle cx="164.71" cy="2.76846" r="2.66995" fill="white"/>
<circle cx="175.389" cy="2.76846" r="2.66995" fill="white"/>
<circle cx="186.069" cy="2.76846" r="2.66995" fill="white"/>
<circle cx="196.749" cy="2.76846" r="2.66995" fill="white"/>
<circle cx="132.67" cy="13.4483" r="2.66995" fill="white"/>
<circle cx="143.35" cy="13.4483" r="2.66995" fill="white"/>
<circle cx="154.03" cy="13.4483" r="2.66995" fill="white"/>
<circle cx="164.71" cy="13.4483" r="2.66995" fill="white"/>
<circle cx="175.389" cy="13.4483" r="2.66995" fill="white"/>
<circle cx="186.069" cy="13.4483" r="2.66995" fill="white"/>
<circle cx="196.749" cy="13.4483" r="2.66995" fill="white"/>
<circle cx="132.67" cy="24.1281" r="2.66995" fill="white"/>
<circle cx="143.35" cy="24.1281" r="2.66995" fill="white"/>
<circle cx="154.03" cy="24.1281" r="2.66995" fill="white"/>
<circle cx="164.71" cy="24.1281" r="2.66995" fill="white"/>
<circle cx="175.389" cy="24.1281" r="2.66995" fill="white"/>
<circle cx="186.069" cy="24.1281" r="2.66995" fill="white"/>
<circle cx="196.749" cy="24.1281" r="2.66995" fill="white"/>
<circle cx="132.67" cy="34.8079" r="2.66995" fill="white"/>
<circle cx="143.35" cy="34.8079" r="2.66995" fill="white"/>
<circle cx="154.03" cy="34.8079" r="2.66995" fill="white"/>
<circle cx="164.71" cy="34.8079" r="2.66995" fill="white"/>
<circle cx="175.389" cy="34.8079" r="2.66995" fill="white"/>
<circle cx="186.069" cy="34.8079" r="2.66995" fill="white"/>
<circle cx="196.749" cy="34.8079" r="2.66995" fill="white"/>
<circle cx="132.67" cy="45.4877" r="2.66995" fill="white"/>
<circle cx="143.35" cy="45.4877" r="2.66995" fill="white"/>
<circle cx="154.03" cy="45.4877" r="2.66995" fill="white"/>
<circle cx="164.71" cy="45.4877" r="2.66995" fill="white"/>
<circle cx="175.389" cy="45.4877" r="2.66995" fill="white"/>
<circle cx="186.069" cy="45.4877" r="2.66995" fill="white"/>
<circle cx="196.749" cy="45.4877" r="2.66995" fill="white"/>
<circle cx="132.67" cy="56.1675" r="2.66995" fill="white"/>
<circle cx="143.35" cy="56.1675" r="2.66995" fill="white"/>
<circle cx="154.03" cy="56.1675" r="2.66995" fill="white"/>
<circle cx="164.71" cy="56.1675" r="2.66995" fill="white"/>
<circle cx="175.389" cy="56.1675" r="2.66995" fill="white"/>
<circle cx="186.069" cy="56.1675" r="2.66995" fill="white"/>
<circle cx="196.749" cy="56.1675" r="2.66995" fill="white"/>
<circle cx="132.67" cy="66.8473" r="2.66995" fill="white"/>
<circle cx="143.35" cy="66.8473" r="2.66995" fill="white"/>
<circle cx="154.03" cy="66.8473" r="2.66995" fill="white"/>
<circle cx="164.71" cy="66.8473" r="2.66995" fill="white"/>
<circle cx="175.389" cy="66.8473" r="2.66995" fill="white"/>
<circle cx="186.069" cy="66.8473" r="2.66995" fill="white"/>
<circle cx="196.749" cy="66.8473" r="2.66995" fill="white"/>
<circle cx="132.67" cy="77.5271" r="2.66995" fill="white"/>
<circle cx="143.35" cy="77.5271" r="2.66995" fill="white"/>
<circle cx="154.03" cy="77.5271" r="2.66995" fill="white"/>
<circle cx="164.71" cy="77.5271" r="2.66995" fill="white"/>
<circle cx="175.389" cy="77.5271" r="2.66995" fill="white"/>
<circle cx="186.069" cy="77.5271" r="2.66995" fill="white"/>
<circle cx="196.749" cy="77.5271" r="2.66995" fill="white"/>
</g>
<g opacity="0.3">
<circle cx="281.089" cy="2.66995" r="2.66995" fill="white"/>
<circle cx="291.769" cy="2.66995" r="2.66995" fill="white"/>
<circle cx="302.448" cy="2.66995" r="2.66995" fill="white"/>
<circle cx="313.128" cy="2.66995" r="2.66995" fill="white"/>
<circle cx="323.808" cy="2.66995" r="2.66995" fill="white"/>
<circle cx="334.488" cy="2.66995" r="2.66995" fill="white"/>
<circle cx="345.168" cy="2.66995" r="2.66995" fill="white"/>
<circle cx="281.089" cy="13.3497" r="2.66995" fill="white"/>
<circle cx="291.769" cy="13.3497" r="2.66995" fill="white"/>
<circle cx="302.448" cy="13.3497" r="2.66995" fill="white"/>
<circle cx="313.128" cy="13.3497" r="2.66995" fill="white"/>
<circle cx="323.808" cy="13.3497" r="2.66995" fill="white"/>
<circle cx="334.488" cy="13.3497" r="2.66995" fill="white"/>
<circle cx="345.168" cy="13.3497" r="2.66995" fill="white"/>
<circle cx="281.089" cy="24.0296" r="2.66995" fill="white"/>
<circle cx="291.769" cy="24.0296" r="2.66995" fill="white"/>
<circle cx="302.448" cy="24.0296" r="2.66995" fill="white"/>
<circle cx="313.128" cy="24.0296" r="2.66995" fill="white"/>
<circle cx="323.808" cy="24.0296" r="2.66995" fill="white"/>
<circle cx="334.488" cy="24.0296" r="2.66995" fill="white"/>
<circle cx="345.168" cy="24.0296" r="2.66995" fill="white"/>
<circle cx="281.089" cy="34.7094" r="2.66995" fill="white"/>
<circle cx="291.769" cy="34.7094" r="2.66995" fill="white"/>
<circle cx="302.448" cy="34.7094" r="2.66995" fill="white"/>
<circle cx="313.128" cy="34.7094" r="2.66995" fill="white"/>
<circle cx="323.808" cy="34.7094" r="2.66995" fill="white"/>
<circle cx="334.488" cy="34.7094" r="2.66995" fill="white"/>
<circle cx="345.168" cy="34.7094" r="2.66995" fill="white"/>
<circle cx="281.089" cy="45.3892" r="2.66995" fill="white"/>
<circle cx="291.769" cy="45.3892" r="2.66995" fill="white"/>
<circle cx="302.448" cy="45.3892" r="2.66995" fill="white"/>
<circle cx="313.128" cy="45.3892" r="2.66995" fill="white"/>
<circle cx="323.808" cy="45.3892" r="2.66995" fill="white"/>
<circle cx="334.488" cy="45.3892" r="2.66995" fill="white"/>
<circle cx="345.168" cy="45.3892" r="2.66995" fill="white"/>
<circle cx="281.089" cy="56.069" r="2.66995" fill="white"/>
<circle cx="291.769" cy="56.069" r="2.66995" fill="white"/>
<circle cx="302.448" cy="56.069" r="2.66995" fill="white"/>
<circle cx="313.128" cy="56.069" r="2.66995" fill="white"/>
<circle cx="323.808" cy="56.069" r="2.66995" fill="white"/>
<circle cx="334.488" cy="56.069" r="2.66995" fill="white"/>
<circle cx="345.168" cy="56.069" r="2.66995" fill="white"/>
<circle cx="281.089" cy="66.7488" r="2.66995" fill="white"/>
<circle cx="291.769" cy="66.7488" r="2.66995" fill="white"/>
<circle cx="302.448" cy="66.7488" r="2.66995" fill="white"/>
<circle cx="313.128" cy="66.7488" r="2.66995" fill="white"/>
<circle cx="323.808" cy="66.7488" r="2.66995" fill="white"/>
<circle cx="334.488" cy="66.7488" r="2.66995" fill="white"/>
<circle cx="345.168" cy="66.7488" r="2.66995" fill="white"/>
<circle cx="281.089" cy="77.4286" r="2.66995" fill="white"/>
<circle cx="291.769" cy="77.4286" r="2.66995" fill="white"/>
<circle cx="302.448" cy="77.4286" r="2.66995" fill="white"/>
<circle cx="313.128" cy="77.4286" r="2.66995" fill="white"/>
<circle cx="323.808" cy="77.4286" r="2.66995" fill="white"/>
<circle cx="334.488" cy="77.4286" r="2.66995" fill="white"/>
<circle cx="345.168" cy="77.4286" r="2.66995" fill="white"/>
</g>
<g opacity="0.3">
<circle cx="58.67" cy="86.7685" r="2.66995" fill="white"/>
<circle cx="69.3499" cy="86.7685" r="2.66995" fill="white"/>
<circle cx="80.0296" cy="86.7685" r="2.66995" fill="white"/>
<circle cx="90.7095" cy="86.7685" r="2.66995" fill="white"/>
<circle cx="101.389" cy="86.7685" r="2.66995" fill="white"/>
<circle cx="112.069" cy="86.7685" r="2.66995" fill="white"/>
<circle cx="122.749" cy="86.7685" r="2.66995" fill="white"/>
<circle cx="58.67" cy="97.4483" r="2.66995" fill="white"/>
<circle cx="69.3499" cy="97.4483" r="2.66995" fill="white"/>
<circle cx="80.0296" cy="97.4483" r="2.66995" fill="white"/>
<circle cx="90.7095" cy="97.4483" r="2.66995" fill="white"/>
<circle cx="101.389" cy="97.4483" r="2.66995" fill="white"/>
<circle cx="112.069" cy="97.4483" r="2.66995" fill="white"/>
<circle cx="122.749" cy="97.4483" r="2.66995" fill="white"/>
<circle cx="58.67" cy="108.128" r="2.66995" fill="white"/>
<circle cx="69.3499" cy="108.128" r="2.66995" fill="white"/>
<circle cx="80.0296" cy="108.128" r="2.66995" fill="white"/>
<circle cx="90.7095" cy="108.128" r="2.66995" fill="white"/>
<circle cx="101.389" cy="108.128" r="2.66995" fill="white"/>
<circle cx="112.069" cy="108.128" r="2.66995" fill="white"/>
<circle cx="122.749" cy="108.128" r="2.66995" fill="white"/>
<circle cx="58.67" cy="118.808" r="2.66995" fill="white"/>
<circle cx="69.3499" cy="118.808" r="2.66995" fill="white"/>
<circle cx="80.0296" cy="118.808" r="2.66995" fill="white"/>
<circle cx="90.7095" cy="118.808" r="2.66995" fill="white"/>
<circle cx="101.389" cy="118.808" r="2.66995" fill="white"/>
<circle cx="112.069" cy="118.808" r="2.66995" fill="white"/>
<circle cx="122.749" cy="118.808" r="2.66995" fill="white"/>
<circle cx="58.67" cy="129.488" r="2.66995" fill="white"/>
<circle cx="69.3499" cy="129.488" r="2.66995" fill="white"/>
<circle cx="80.0296" cy="129.488" r="2.66995" fill="white"/>
<circle cx="90.7095" cy="129.488" r="2.66995" fill="white"/>
<circle cx="101.389" cy="129.488" r="2.66995" fill="white"/>
<circle cx="112.069" cy="129.488" r="2.66995" fill="white"/>
<circle cx="122.749" cy="129.488" r="2.66995" fill="white"/>
<circle cx="58.67" cy="140.168" r="2.66995" fill="white"/>
<circle cx="69.3499" cy="140.168" r="2.66995" fill="white"/>
<circle cx="80.0296" cy="140.168" r="2.66995" fill="white"/>
<circle cx="90.7095" cy="140.168" r="2.66995" fill="white"/>
<circle cx="101.389" cy="140.168" r="2.66995" fill="white"/>
<circle cx="112.069" cy="140.168" r="2.66995" fill="white"/>
<circle cx="122.749" cy="140.168" r="2.66995" fill="white"/>
<circle cx="58.67" cy="150.847" r="2.66995" fill="white"/>
<circle cx="69.3499" cy="150.847" r="2.66995" fill="white"/>
<circle cx="80.0296" cy="150.847" r="2.66995" fill="white"/>
<circle cx="90.7095" cy="150.847" r="2.66995" fill="white"/>
<circle cx="101.389" cy="150.847" r="2.66995" fill="white"/>
<circle cx="112.069" cy="150.847" r="2.66995" fill="white"/>
<circle cx="122.749" cy="150.847" r="2.66995" fill="white"/>
<circle cx="58.67" cy="161.527" r="2.66995" fill="white"/>
<circle cx="69.3499" cy="161.527" r="2.66995" fill="white"/>
<circle cx="80.0296" cy="161.527" r="2.66995" fill="white"/>
<circle cx="90.7095" cy="161.527" r="2.66995" fill="white"/>
<circle cx="101.389" cy="161.527" r="2.66995" fill="white"/>
<circle cx="112.069" cy="161.527" r="2.66995" fill="white"/>
<circle cx="122.749" cy="161.527" r="2.66995" fill="white"/>
</g>
<g opacity="0.3">
<circle cx="206.67" cy="86.7685" r="2.66995" fill="white"/>
<circle cx="217.35" cy="86.7685" r="2.66995" fill="white"/>
<circle cx="228.03" cy="86.7685" r="2.66995" fill="white"/>
<circle cx="238.71" cy="86.7685" r="2.66995" fill="white"/>
<circle cx="249.389" cy="86.7685" r="2.66995" fill="white"/>
<circle cx="260.069" cy="86.7685" r="2.66995" fill="white"/>
<circle cx="270.749" cy="86.7685" r="2.66995" fill="white"/>
<circle cx="206.67" cy="97.4483" r="2.66995" fill="white"/>
<circle cx="217.35" cy="97.4483" r="2.66995" fill="white"/>
<circle cx="228.03" cy="97.4483" r="2.66995" fill="white"/>
<circle cx="238.71" cy="97.4483" r="2.66995" fill="white"/>
<circle cx="249.389" cy="97.4483" r="2.66995" fill="white"/>
<circle cx="260.069" cy="97.4483" r="2.66995" fill="white"/>
<circle cx="270.749" cy="97.4483" r="2.66995" fill="white"/>
<circle cx="206.67" cy="108.128" r="2.66995" fill="white"/>
<circle cx="217.35" cy="108.128" r="2.66995" fill="white"/>
<circle cx="228.03" cy="108.128" r="2.66995" fill="white"/>
<circle cx="238.71" cy="108.128" r="2.66995" fill="white"/>
<circle cx="249.389" cy="108.128" r="2.66995" fill="white"/>
<circle cx="260.069" cy="108.128" r="2.66995" fill="white"/>
<circle cx="270.749" cy="108.128" r="2.66995" fill="white"/>
<circle cx="206.67" cy="118.808" r="2.66995" fill="white"/>
<circle cx="217.35" cy="118.808" r="2.66995" fill="white"/>
<circle cx="228.03" cy="118.808" r="2.66995" fill="white"/>
<circle cx="238.71" cy="118.808" r="2.66995" fill="white"/>
<circle cx="249.389" cy="118.808" r="2.66995" fill="white"/>
<circle cx="260.069" cy="118.808" r="2.66995" fill="white"/>
<circle cx="270.749" cy="118.808" r="2.66995" fill="white"/>
<circle cx="206.67" cy="129.488" r="2.66995" fill="white"/>
<circle cx="217.35" cy="129.488" r="2.66995" fill="white"/>
<circle cx="228.03" cy="129.488" r="2.66995" fill="white"/>
<circle cx="238.71" cy="129.488" r="2.66995" fill="white"/>
<circle cx="249.389" cy="129.488" r="2.66995" fill="white"/>
<circle cx="260.069" cy="129.488" r="2.66995" fill="white"/>
<circle cx="270.749" cy="129.488" r="2.66995" fill="white"/>
<circle cx="206.67" cy="140.168" r="2.66995" fill="white"/>
<circle cx="217.35" cy="140.168" r="2.66995" fill="white"/>
<circle cx="228.03" cy="140.168" r="2.66995" fill="white"/>
<circle cx="238.71" cy="140.168" r="2.66995" fill="white"/>
<circle cx="249.389" cy="140.168" r="2.66995" fill="white"/>
<circle cx="260.069" cy="140.168" r="2.66995" fill="white"/>
<circle cx="270.749" cy="140.168" r="2.66995" fill="white"/>
<circle cx="206.67" cy="150.847" r="2.66995" fill="white"/>
<circle cx="217.35" cy="150.847" r="2.66995" fill="white"/>
<circle cx="228.03" cy="150.847" r="2.66995" fill="white"/>
<circle cx="238.71" cy="150.847" r="2.66995" fill="white"/>
<circle cx="249.389" cy="150.847" r="2.66995" fill="white"/>
<circle cx="260.069" cy="150.847" r="2.66995" fill="white"/>
<circle cx="270.749" cy="150.847" r="2.66995" fill="white"/>
<circle cx="206.67" cy="161.527" r="2.66995" fill="white"/>
<circle cx="217.35" cy="161.527" r="2.66995" fill="white"/>
<circle cx="228.03" cy="161.527" r="2.66995" fill="white"/>
<circle cx="238.71" cy="161.527" r="2.66995" fill="white"/>
<circle cx="249.389" cy="161.527" r="2.66995" fill="white"/>
<circle cx="260.069" cy="161.527" r="2.66995" fill="white"/>
<circle cx="270.749" cy="161.527" r="2.66995" fill="white"/>
</g>
<g opacity="0.3">
<circle cx="132.67" cy="86.7685" r="2.66995" fill="white"/>
<circle cx="143.35" cy="86.7685" r="2.66995" fill="white"/>
<circle cx="154.03" cy="86.7685" r="2.66995" fill="white"/>
<circle cx="164.71" cy="86.7685" r="2.66995" fill="white"/>
<circle cx="175.389" cy="86.7685" r="2.66995" fill="white"/>
<circle cx="186.069" cy="86.7685" r="2.66995" fill="white"/>
<circle cx="196.749" cy="86.7685" r="2.66995" fill="white"/>
<circle cx="132.67" cy="97.4483" r="2.66995" fill="white"/>
<circle cx="143.35" cy="97.4483" r="2.66995" fill="white"/>
<circle cx="154.03" cy="97.4483" r="2.66995" fill="white"/>
<circle cx="164.71" cy="97.4483" r="2.66995" fill="white"/>
<circle cx="175.389" cy="97.4483" r="2.66995" fill="white"/>
<circle cx="186.069" cy="97.4483" r="2.66995" fill="white"/>
<circle cx="196.749" cy="97.4483" r="2.66995" fill="white"/>
<circle cx="132.67" cy="108.128" r="2.66995" fill="white"/>
<circle cx="143.35" cy="108.128" r="2.66995" fill="white"/>
<circle cx="154.03" cy="108.128" r="2.66995" fill="white"/>
<circle cx="164.71" cy="108.128" r="2.66995" fill="white"/>
<circle cx="175.389" cy="108.128" r="2.66995" fill="white"/>
<circle cx="186.069" cy="108.128" r="2.66995" fill="white"/>
<circle cx="196.749" cy="108.128" r="2.66995" fill="white"/>
<circle cx="132.67" cy="118.808" r="2.66995" fill="white"/>
<circle cx="143.35" cy="118.808" r="2.66995" fill="white"/>
<circle cx="154.03" cy="118.808" r="2.66995" fill="white"/>
<circle cx="164.71" cy="118.808" r="2.66995" fill="white"/>
<circle cx="175.389" cy="118.808" r="2.66995" fill="white"/>
<circle cx="186.069" cy="118.808" r="2.66995" fill="white"/>
<circle cx="196.749" cy="118.808" r="2.66995" fill="white"/>
<circle cx="132.67" cy="129.488" r="2.66995" fill="white"/>
<circle cx="143.35" cy="129.488" r="2.66995" fill="white"/>
<circle cx="154.03" cy="129.488" r="2.66995" fill="white"/>
<circle cx="164.71" cy="129.488" r="2.66995" fill="white"/>
<circle cx="175.389" cy="129.488" r="2.66995" fill="white"/>
<circle cx="186.069" cy="129.488" r="2.66995" fill="white"/>
<circle cx="196.749" cy="129.488" r="2.66995" fill="white"/>
<circle cx="132.67" cy="140.168" r="2.66995" fill="white"/>
<circle cx="143.35" cy="140.168" r="2.66995" fill="white"/>
<circle cx="154.03" cy="140.168" r="2.66995" fill="white"/>
<circle cx="164.71" cy="140.168" r="2.66995" fill="white"/>
<circle cx="175.389" cy="140.168" r="2.66995" fill="white"/>
<circle cx="186.069" cy="140.168" r="2.66995" fill="white"/>
<circle cx="196.749" cy="140.168" r="2.66995" fill="white"/>
<circle cx="132.67" cy="150.847" r="2.66995" fill="white"/>
<circle cx="143.35" cy="150.847" r="2.66995" fill="white"/>
<circle cx="154.03" cy="150.847" r="2.66995" fill="white"/>
<circle cx="164.71" cy="150.847" r="2.66995" fill="white"/>
<circle cx="175.389" cy="150.847" r="2.66995" fill="white"/>
<circle cx="186.069" cy="150.847" r="2.66995" fill="white"/>
<circle cx="196.749" cy="150.847" r="2.66995" fill="white"/>
<circle cx="132.67" cy="161.527" r="2.66995" fill="white"/>
<circle cx="143.35" cy="161.527" r="2.66995" fill="white"/>
<circle cx="154.03" cy="161.527" r="2.66995" fill="white"/>
<circle cx="164.71" cy="161.527" r="2.66995" fill="white"/>
<circle cx="175.389" cy="161.527" r="2.66995" fill="white"/>
<circle cx="186.069" cy="161.527" r="2.66995" fill="white"/>
<circle cx="196.749" cy="161.527" r="2.66995" fill="white"/>
</g>
<g opacity="0.3">
<circle cx="281.089" cy="86.7685" r="2.66995" fill="white"/>
<circle cx="291.769" cy="86.7685" r="2.66995" fill="white"/>
<circle cx="302.448" cy="86.7685" r="2.66995" fill="white"/>
<circle cx="313.128" cy="86.7685" r="2.66995" fill="white"/>
<circle cx="323.808" cy="86.7685" r="2.66995" fill="white"/>
<circle cx="334.488" cy="86.7685" r="2.66995" fill="white"/>
<circle cx="345.168" cy="86.7685" r="2.66995" fill="white"/>
<circle cx="281.089" cy="97.4483" r="2.66995" fill="white"/>
<circle cx="291.769" cy="97.4483" r="2.66995" fill="white"/>
<circle cx="302.448" cy="97.4483" r="2.66995" fill="white"/>
<circle cx="313.128" cy="97.4483" r="2.66995" fill="white"/>
<circle cx="323.808" cy="97.4483" r="2.66995" fill="white"/>
<circle cx="334.488" cy="97.4483" r="2.66995" fill="white"/>
<circle cx="345.168" cy="97.4483" r="2.66995" fill="white"/>
<circle cx="281.089" cy="108.128" r="2.66995" fill="white"/>
<circle cx="291.769" cy="108.128" r="2.66995" fill="white"/>
<circle cx="302.448" cy="108.128" r="2.66995" fill="white"/>
<circle cx="313.128" cy="108.128" r="2.66995" fill="white"/>
<circle cx="323.808" cy="108.128" r="2.66995" fill="white"/>
<circle cx="334.488" cy="108.128" r="2.66995" fill="white"/>
<circle cx="345.168" cy="108.128" r="2.66995" fill="white"/>
<circle cx="281.089" cy="118.808" r="2.66995" fill="white"/>
<circle cx="291.769" cy="118.808" r="2.66995" fill="white"/>
<circle cx="302.448" cy="118.808" r="2.66995" fill="white"/>
<circle cx="313.128" cy="118.808" r="2.66995" fill="white"/>
<circle cx="323.808" cy="118.808" r="2.66995" fill="white"/>
<circle cx="334.488" cy="118.808" r="2.66995" fill="white"/>
<circle cx="345.168" cy="118.808" r="2.66995" fill="white"/>
<circle cx="281.089" cy="129.488" r="2.66995" fill="white"/>
<circle cx="291.769" cy="129.488" r="2.66995" fill="white"/>
<circle cx="302.448" cy="129.488" r="2.66995" fill="white"/>
<circle cx="313.128" cy="129.488" r="2.66995" fill="white"/>
<circle cx="323.808" cy="129.488" r="2.66995" fill="white"/>
<circle cx="334.488" cy="129.488" r="2.66995" fill="white"/>
<circle cx="345.168" cy="129.488" r="2.66995" fill="white"/>
<circle cx="281.089" cy="140.168" r="2.66995" fill="white"/>
<circle cx="291.769" cy="140.168" r="2.66995" fill="white"/>
<circle cx="302.448" cy="140.168" r="2.66995" fill="white"/>
<circle cx="313.128" cy="140.168" r="2.66995" fill="white"/>
<circle cx="323.808" cy="140.168" r="2.66995" fill="white"/>
<circle cx="334.488" cy="140.168" r="2.66995" fill="white"/>
<circle cx="345.168" cy="140.168" r="2.66995" fill="white"/>
<circle cx="281.089" cy="150.847" r="2.66995" fill="white"/>
<circle cx="291.769" cy="150.847" r="2.66995" fill="white"/>
<circle cx="302.448" cy="150.847" r="2.66995" fill="white"/>
<circle cx="313.128" cy="150.847" r="2.66995" fill="white"/>
<circle cx="323.808" cy="150.847" r="2.66995" fill="white"/>
<circle cx="334.488" cy="150.847" r="2.66995" fill="white"/>
<circle cx="345.168" cy="150.847" r="2.66995" fill="white"/>
<circle cx="281.089" cy="161.527" r="2.66995" fill="white"/>
<circle cx="291.769" cy="161.527" r="2.66995" fill="white"/>
<circle cx="302.448" cy="161.527" r="2.66995" fill="white"/>
<circle cx="313.128" cy="161.527" r="2.66995" fill="white"/>
<circle cx="323.808" cy="161.527" r="2.66995" fill="white"/>
<circle cx="334.488" cy="161.527" r="2.66995" fill="white"/>
<circle cx="345.168" cy="161.527" r="2.66995" fill="white"/>
</g>
<g opacity="0.3">
<circle cx="58.67" cy="171.965" r="2.66995" fill="white"/>
<circle cx="69.3499" cy="171.965" r="2.66995" fill="white"/>
<circle cx="80.0296" cy="171.965" r="2.66995" fill="white"/>
<circle cx="90.7095" cy="171.965" r="2.66995" fill="white"/>
<circle cx="101.389" cy="171.965" r="2.66995" fill="white"/>
<circle cx="112.069" cy="171.965" r="2.66995" fill="white"/>
<circle cx="122.749" cy="171.965" r="2.66995" fill="white"/>
<circle cx="58.67" cy="182.645" r="2.66995" fill="white"/>
<circle cx="69.3499" cy="182.645" r="2.66995" fill="white"/>
<circle cx="80.0296" cy="182.645" r="2.66995" fill="white"/>
<circle cx="90.7095" cy="182.645" r="2.66995" fill="white"/>
<circle cx="101.389" cy="182.645" r="2.66995" fill="white"/>
<circle cx="112.069" cy="182.645" r="2.66995" fill="white"/>
<circle cx="122.749" cy="182.645" r="2.66995" fill="white"/>
<circle cx="58.67" cy="193.325" r="2.66995" fill="white"/>
<circle cx="69.3499" cy="193.325" r="2.66995" fill="white"/>
<circle cx="80.0296" cy="193.325" r="2.66995" fill="white"/>
<circle cx="90.7095" cy="193.325" r="2.66995" fill="white"/>
<circle cx="101.389" cy="193.325" r="2.66995" fill="white"/>
<circle cx="112.069" cy="193.325" r="2.66995" fill="white"/>
<circle cx="122.749" cy="193.325" r="2.66995" fill="white"/>
<circle cx="58.67" cy="204.005" r="2.66995" fill="white"/>
<circle cx="69.3499" cy="204.005" r="2.66995" fill="white"/>
<circle cx="80.0296" cy="204.005" r="2.66995" fill="white"/>
<circle cx="90.7095" cy="204.005" r="2.66995" fill="white"/>
<circle cx="101.389" cy="204.005" r="2.66995" fill="white"/>
<circle cx="112.069" cy="204.005" r="2.66995" fill="white"/>
<circle cx="122.749" cy="204.005" r="2.66995" fill="white"/>
<circle cx="58.67" cy="214.685" r="2.66995" fill="white"/>
<circle cx="69.3499" cy="214.685" r="2.66995" fill="white"/>
<circle cx="80.0296" cy="214.685" r="2.66995" fill="white"/>
<circle cx="90.7095" cy="214.685" r="2.66995" fill="white"/>
<circle cx="101.389" cy="214.685" r="2.66995" fill="white"/>
<circle cx="112.069" cy="214.685" r="2.66995" fill="white"/>
<circle cx="122.749" cy="214.685" r="2.66995" fill="white"/>
<circle cx="58.67" cy="225.365" r="2.66995" fill="white"/>
<circle cx="69.3499" cy="225.365" r="2.66995" fill="white"/>
<circle cx="80.0296" cy="225.365" r="2.66995" fill="white"/>
<circle cx="90.7095" cy="225.365" r="2.66995" fill="white"/>
<circle cx="101.389" cy="225.365" r="2.66995" fill="white"/>
<circle cx="112.069" cy="225.365" r="2.66995" fill="white"/>
<circle cx="122.749" cy="225.365" r="2.66995" fill="white"/>
<circle cx="58.67" cy="236.044" r="2.66995" fill="white"/>
<circle cx="69.3499" cy="236.044" r="2.66995" fill="white"/>
<circle cx="80.0296" cy="236.044" r="2.66995" fill="white"/>
<circle cx="90.7095" cy="236.044" r="2.66995" fill="white"/>
<circle cx="101.389" cy="236.044" r="2.66995" fill="white"/>
<circle cx="112.069" cy="236.044" r="2.66995" fill="white"/>
<circle cx="122.749" cy="236.044" r="2.66995" fill="white"/>
<circle cx="58.67" cy="246.724" r="2.66995" fill="white"/>
<circle cx="69.3499" cy="246.724" r="2.66995" fill="white"/>
<circle cx="80.0296" cy="246.724" r="2.66995" fill="white"/>
<circle cx="90.7095" cy="246.724" r="2.66995" fill="white"/>
<circle cx="101.389" cy="246.724" r="2.66995" fill="white"/>
<circle cx="112.069" cy="246.724" r="2.66995" fill="white"/>
<circle cx="122.749" cy="246.724" r="2.66995" fill="white"/>
</g>
<g opacity="0.3">
<circle cx="206.67" cy="171.867" r="2.66995" fill="white"/>
<circle cx="217.35" cy="171.867" r="2.66995" fill="white"/>
<circle cx="228.03" cy="171.867" r="2.66995" fill="white"/>
<circle cx="238.71" cy="171.867" r="2.66995" fill="white"/>
<circle cx="249.389" cy="171.867" r="2.66995" fill="white"/>
<circle cx="260.069" cy="171.867" r="2.66995" fill="white"/>
<circle cx="270.749" cy="171.867" r="2.66995" fill="white"/>
<circle cx="206.67" cy="182.547" r="2.66995" fill="white"/>
<circle cx="217.35" cy="182.547" r="2.66995" fill="white"/>
<circle cx="228.03" cy="182.547" r="2.66995" fill="white"/>
<circle cx="238.71" cy="182.547" r="2.66995" fill="white"/>
<circle cx="249.389" cy="182.547" r="2.66995" fill="white"/>
<circle cx="260.069" cy="182.547" r="2.66995" fill="white"/>
<circle cx="270.749" cy="182.547" r="2.66995" fill="white"/>
<circle cx="206.67" cy="193.227" r="2.66995" fill="white"/>
<circle cx="217.35" cy="193.227" r="2.66995" fill="white"/>
<circle cx="228.03" cy="193.227" r="2.66995" fill="white"/>
<circle cx="238.71" cy="193.227" r="2.66995" fill="white"/>
<circle cx="249.389" cy="193.227" r="2.66995" fill="white"/>
<circle cx="260.069" cy="193.227" r="2.66995" fill="white"/>
<circle cx="270.749" cy="193.227" r="2.66995" fill="white"/>
<circle cx="206.67" cy="203.906" r="2.66995" fill="white"/>
<circle cx="217.35" cy="203.906" r="2.66995" fill="white"/>
<circle cx="228.03" cy="203.906" r="2.66995" fill="white"/>
<circle cx="238.71" cy="203.906" r="2.66995" fill="white"/>
<circle cx="249.389" cy="203.906" r="2.66995" fill="white"/>
<circle cx="260.069" cy="203.906" r="2.66995" fill="white"/>
<circle cx="270.749" cy="203.906" r="2.66995" fill="white"/>
<circle cx="206.67" cy="214.586" r="2.66995" fill="white"/>
<circle cx="217.35" cy="214.586" r="2.66995" fill="white"/>
<circle cx="228.03" cy="214.586" r="2.66995" fill="white"/>
<circle cx="238.71" cy="214.586" r="2.66995" fill="white"/>
<circle cx="249.389" cy="214.586" r="2.66995" fill="white"/>
<circle cx="260.069" cy="214.586" r="2.66995" fill="white"/>
<circle cx="270.749" cy="214.586" r="2.66995" fill="white"/>
<circle cx="206.67" cy="225.266" r="2.66995" fill="white"/>
<circle cx="217.35" cy="225.266" r="2.66995" fill="white"/>
<circle cx="228.03" cy="225.266" r="2.66995" fill="white"/>
<circle cx="238.71" cy="225.266" r="2.66995" fill="white"/>
<circle cx="249.389" cy="225.266" r="2.66995" fill="white"/>
<circle cx="260.069" cy="225.266" r="2.66995" fill="white"/>
<circle cx="270.749" cy="225.266" r="2.66995" fill="white"/>
<circle cx="206.67" cy="235.946" r="2.66995" fill="white"/>
<circle cx="217.35" cy="235.946" r="2.66995" fill="white"/>
<circle cx="228.03" cy="235.946" r="2.66995" fill="white"/>
<circle cx="238.71" cy="235.946" r="2.66995" fill="white"/>
<circle cx="249.389" cy="235.946" r="2.66995" fill="white"/>
<circle cx="260.069" cy="235.946" r="2.66995" fill="white"/>
<circle cx="270.749" cy="235.946" r="2.66995" fill="white"/>
<circle cx="206.67" cy="246.626" r="2.66995" fill="white"/>
<circle cx="217.35" cy="246.626" r="2.66995" fill="white"/>
<circle cx="228.03" cy="246.626" r="2.66995" fill="white"/>
<circle cx="238.71" cy="246.626" r="2.66995" fill="white"/>
<circle cx="249.389" cy="246.626" r="2.66995" fill="white"/>
<circle cx="260.069" cy="246.626" r="2.66995" fill="white"/>
<circle cx="270.749" cy="246.626" r="2.66995" fill="white"/>
</g>
<g opacity="0.3">
<circle cx="132.67" cy="171.965" r="2.66995" fill="white"/>
<circle cx="143.35" cy="171.965" r="2.66995" fill="white"/>
<circle cx="154.03" cy="171.965" r="2.66995" fill="white"/>
<circle cx="164.71" cy="171.965" r="2.66995" fill="white"/>
<circle cx="175.389" cy="171.965" r="2.66995" fill="white"/>
<circle cx="186.069" cy="171.965" r="2.66995" fill="white"/>
<circle cx="196.749" cy="171.965" r="2.66995" fill="white"/>
<circle cx="132.67" cy="182.645" r="2.66995" fill="white"/>
<circle cx="143.35" cy="182.645" r="2.66995" fill="white"/>
<circle cx="154.03" cy="182.645" r="2.66995" fill="white"/>
<circle cx="164.71" cy="182.645" r="2.66995" fill="white"/>
<circle cx="175.389" cy="182.645" r="2.66995" fill="white"/>
<circle cx="186.069" cy="182.645" r="2.66995" fill="white"/>
<circle cx="196.749" cy="182.645" r="2.66995" fill="white"/>
<circle cx="132.67" cy="193.325" r="2.66995" fill="white"/>
<circle cx="143.35" cy="193.325" r="2.66995" fill="white"/>
<circle cx="154.03" cy="193.325" r="2.66995" fill="white"/>
<circle cx="164.71" cy="193.325" r="2.66995" fill="white"/>
<circle cx="175.389" cy="193.325" r="2.66995" fill="white"/>
<circle cx="186.069" cy="193.325" r="2.66995" fill="white"/>
<circle cx="196.749" cy="193.325" r="2.66995" fill="white"/>
<circle cx="132.67" cy="204.005" r="2.66995" fill="white"/>
<circle cx="143.35" cy="204.005" r="2.66995" fill="white"/>
<circle cx="154.03" cy="204.005" r="2.66995" fill="white"/>
<circle cx="164.71" cy="204.005" r="2.66995" fill="white"/>
<circle cx="175.389" cy="204.005" r="2.66995" fill="white"/>
<circle cx="186.069" cy="204.005" r="2.66995" fill="white"/>
<circle cx="196.749" cy="204.005" r="2.66995" fill="white"/>
<circle cx="132.67" cy="214.685" r="2.66995" fill="white"/>
<circle cx="143.35" cy="214.685" r="2.66995" fill="white"/>
<circle cx="154.03" cy="214.685" r="2.66995" fill="white"/>
<circle cx="164.71" cy="214.685" r="2.66995" fill="white"/>
<circle cx="175.389" cy="214.685" r="2.66995" fill="white"/>
<circle cx="186.069" cy="214.685" r="2.66995" fill="white"/>
<circle cx="196.749" cy="214.685" r="2.66995" fill="white"/>
<circle cx="132.67" cy="225.365" r="2.66995" fill="white"/>
<circle cx="143.35" cy="225.365" r="2.66995" fill="white"/>
<circle cx="154.03" cy="225.365" r="2.66995" fill="white"/>
<circle cx="164.71" cy="225.365" r="2.66995" fill="white"/>
<circle cx="175.389" cy="225.365" r="2.66995" fill="white"/>
<circle cx="186.069" cy="225.365" r="2.66995" fill="white"/>
<circle cx="196.749" cy="225.365" r="2.66995" fill="white"/>
<circle cx="132.67" cy="236.044" r="2.66995" fill="white"/>
<circle cx="143.35" cy="236.044" r="2.66995" fill="white"/>
<circle cx="154.03" cy="236.044" r="2.66995" fill="white"/>
<circle cx="164.71" cy="236.044" r="2.66995" fill="white"/>
<circle cx="175.389" cy="236.044" r="2.66995" fill="white"/>
<circle cx="186.069" cy="236.044" r="2.66995" fill="white"/>
<circle cx="196.749" cy="236.044" r="2.66995" fill="white"/>
<circle cx="132.67" cy="246.724" r="2.66995" fill="white"/>
<circle cx="143.35" cy="246.724" r="2.66995" fill="white"/>
<circle cx="154.03" cy="246.724" r="2.66995" fill="white"/>
<circle cx="164.71" cy="246.724" r="2.66995" fill="white"/>
<circle cx="175.389" cy="246.724" r="2.66995" fill="white"/>
<circle cx="186.069" cy="246.724" r="2.66995" fill="white"/>
<circle cx="196.749" cy="246.724" r="2.66995" fill="white"/>
</g>
<g opacity="0.3">
<circle cx="281.089" cy="171.867" r="2.66995" fill="white"/>
<circle cx="291.769" cy="171.867" r="2.66995" fill="white"/>
<circle cx="302.448" cy="171.867" r="2.66995" fill="white"/>
<circle cx="313.128" cy="171.867" r="2.66995" fill="white"/>
<circle cx="323.808" cy="171.867" r="2.66995" fill="white"/>
<circle cx="334.488" cy="171.867" r="2.66995" fill="white"/>
<circle cx="345.168" cy="171.867" r="2.66995" fill="white"/>
<circle cx="281.089" cy="182.547" r="2.66995" fill="white"/>
<circle cx="291.769" cy="182.547" r="2.66995" fill="white"/>
<circle cx="302.448" cy="182.547" r="2.66995" fill="white"/>
<circle cx="313.128" cy="182.547" r="2.66995" fill="white"/>
<circle cx="323.808" cy="182.547" r="2.66995" fill="white"/>
<circle cx="334.488" cy="182.547" r="2.66995" fill="white"/>
<circle cx="345.168" cy="182.547" r="2.66995" fill="white"/>
<circle cx="281.089" cy="193.227" r="2.66995" fill="white"/>
<circle cx="291.769" cy="193.227" r="2.66995" fill="white"/>
<circle cx="302.448" cy="193.227" r="2.66995" fill="white"/>
<circle cx="313.128" cy="193.227" r="2.66995" fill="white"/>
<circle cx="323.808" cy="193.227" r="2.66995" fill="white"/>
<circle cx="334.488" cy="193.227" r="2.66995" fill="white"/>
<circle cx="345.168" cy="193.227" r="2.66995" fill="white"/>
<circle cx="281.089" cy="203.906" r="2.66995" fill="white"/>
<circle cx="291.769" cy="203.906" r="2.66995" fill="white"/>
<circle cx="302.448" cy="203.906" r="2.66995" fill="white"/>
<circle cx="313.128" cy="203.906" r="2.66995" fill="white"/>
<circle cx="323.808" cy="203.906" r="2.66995" fill="white"/>
<circle cx="334.488" cy="203.906" r="2.66995" fill="white"/>
<circle cx="345.168" cy="203.906" r="2.66995" fill="white"/>
<circle cx="281.089" cy="214.586" r="2.66995" fill="white"/>
<circle cx="291.769" cy="214.586" r="2.66995" fill="white"/>
<circle cx="302.448" cy="214.586" r="2.66995" fill="white"/>
<circle cx="313.128" cy="214.586" r="2.66995" fill="white"/>
<circle cx="323.808" cy="214.586" r="2.66995" fill="white"/>
<circle cx="334.488" cy="214.586" r="2.66995" fill="white"/>
<circle cx="345.168" cy="214.586" r="2.66995" fill="white"/>
<circle cx="281.089" cy="225.266" r="2.66995" fill="white"/>
<circle cx="291.769" cy="225.266" r="2.66995" fill="white"/>
<circle cx="302.448" cy="225.266" r="2.66995" fill="white"/>
<circle cx="313.128" cy="225.266" r="2.66995" fill="white"/>
<circle cx="323.808" cy="225.266" r="2.66995" fill="white"/>
<circle cx="334.488" cy="225.266" r="2.66995" fill="white"/>
<circle cx="345.168" cy="225.266" r="2.66995" fill="white"/>
<circle cx="281.089" cy="235.946" r="2.66995" fill="white"/>
<circle cx="291.769" cy="235.946" r="2.66995" fill="white"/>
<circle cx="302.448" cy="235.946" r="2.66995" fill="white"/>
<circle cx="313.128" cy="235.946" r="2.66995" fill="white"/>
<circle cx="323.808" cy="235.946" r="2.66995" fill="white"/>
<circle cx="334.488" cy="235.946" r="2.66995" fill="white"/>
<circle cx="345.168" cy="235.946" r="2.66995" fill="white"/>
<circle cx="281.089" cy="246.626" r="2.66995" fill="white"/>
<circle cx="291.769" cy="246.626" r="2.66995" fill="white"/>
<circle cx="302.448" cy="246.626" r="2.66995" fill="white"/>
<circle cx="313.128" cy="246.626" r="2.66995" fill="white"/>
<circle cx="323.808" cy="246.626" r="2.66995" fill="white"/>
<circle cx="334.488" cy="246.626" r="2.66995" fill="white"/>
<circle cx="345.168" cy="246.626" r="2.66995" fill="white"/>
</g>
<g opacity="0.3">
<circle cx="58.67" cy="255.965" r="2.66995" fill="white"/>
<circle cx="69.3499" cy="255.965" r="2.66995" fill="white"/>
<circle cx="80.0296" cy="255.965" r="2.66995" fill="white"/>
<circle cx="90.7095" cy="255.965" r="2.66995" fill="white"/>
<circle cx="101.389" cy="255.965" r="2.66995" fill="white"/>
<circle cx="112.069" cy="255.965" r="2.66995" fill="white"/>
<circle cx="122.749" cy="255.965" r="2.66995" fill="white"/>
<circle cx="58.67" cy="266.645" r="2.66995" fill="white"/>
<circle cx="69.3499" cy="266.645" r="2.66995" fill="white"/>
<circle cx="80.0296" cy="266.645" r="2.66995" fill="white"/>
<circle cx="90.7095" cy="266.645" r="2.66995" fill="white"/>
<circle cx="101.389" cy="266.645" r="2.66995" fill="white"/>
<circle cx="112.069" cy="266.645" r="2.66995" fill="white"/>
<circle cx="122.749" cy="266.645" r="2.66995" fill="white"/>
<circle cx="58.67" cy="277.325" r="2.66995" fill="white"/>
<circle cx="69.3499" cy="277.325" r="2.66995" fill="white"/>
<circle cx="80.0296" cy="277.325" r="2.66995" fill="white"/>
<circle cx="90.7095" cy="277.325" r="2.66995" fill="white"/>
<circle cx="101.389" cy="277.325" r="2.66995" fill="white"/>
<circle cx="112.069" cy="277.325" r="2.66995" fill="white"/>
<circle cx="122.749" cy="277.325" r="2.66995" fill="white"/>
<circle cx="58.67" cy="288.005" r="2.66995" fill="white"/>
<circle cx="69.3499" cy="288.005" r="2.66995" fill="white"/>
<circle cx="80.0296" cy="288.005" r="2.66995" fill="white"/>
<circle cx="90.7095" cy="288.005" r="2.66995" fill="white"/>
<circle cx="101.389" cy="288.005" r="2.66995" fill="white"/>
<circle cx="112.069" cy="288.005" r="2.66995" fill="white"/>
<circle cx="122.749" cy="288.005" r="2.66995" fill="white"/>
<circle cx="58.67" cy="298.685" r="2.66995" fill="white"/>
<circle cx="69.3499" cy="298.685" r="2.66995" fill="white"/>
<circle cx="80.0296" cy="298.685" r="2.66995" fill="white"/>
<circle cx="90.7095" cy="298.685" r="2.66995" fill="white"/>
<circle cx="101.389" cy="298.685" r="2.66995" fill="white"/>
<circle cx="112.069" cy="298.685" r="2.66995" fill="white"/>
<circle cx="122.749" cy="298.685" r="2.66995" fill="white"/>
<circle cx="58.67" cy="309.365" r="2.66995" fill="white"/>
<circle cx="69.3499" cy="309.365" r="2.66995" fill="white"/>
<circle cx="80.0296" cy="309.365" r="2.66995" fill="white"/>
<circle cx="90.7095" cy="309.365" r="2.66995" fill="white"/>
<circle cx="101.389" cy="309.365" r="2.66995" fill="white"/>
<circle cx="112.069" cy="309.365" r="2.66995" fill="white"/>
<circle cx="122.749" cy="309.365" r="2.66995" fill="white"/>
<circle cx="58.67" cy="320.044" r="2.66995" fill="white"/>
<circle cx="69.3499" cy="320.044" r="2.66995" fill="white"/>
<circle cx="80.0296" cy="320.044" r="2.66995" fill="white"/>
<circle cx="90.7095" cy="320.044" r="2.66995" fill="white"/>
<circle cx="101.389" cy="320.044" r="2.66995" fill="white"/>
<circle cx="112.069" cy="320.044" r="2.66995" fill="white"/>
<circle cx="122.749" cy="320.044" r="2.66995" fill="white"/>
<circle cx="58.67" cy="330.724" r="2.66995" fill="white"/>
<circle cx="69.3499" cy="330.724" r="2.66995" fill="white"/>
<circle cx="80.0296" cy="330.724" r="2.66995" fill="white"/>
<circle cx="90.7095" cy="330.724" r="2.66995" fill="white"/>
<circle cx="101.389" cy="330.724" r="2.66995" fill="white"/>
<circle cx="112.069" cy="330.724" r="2.66995" fill="white"/>
<circle cx="122.749" cy="330.724" r="2.66995" fill="white"/>
</g>
<g opacity="0.3">
<circle cx="206.67" cy="255.965" r="2.66995" fill="white"/>
<circle cx="217.35" cy="255.965" r="2.66995" fill="white"/>
<circle cx="228.03" cy="255.965" r="2.66995" fill="white"/>
<circle cx="238.71" cy="255.965" r="2.66995" fill="white"/>
<circle cx="249.389" cy="255.965" r="2.66995" fill="white"/>
<circle cx="260.069" cy="255.965" r="2.66995" fill="white"/>
<circle cx="270.749" cy="255.965" r="2.66995" fill="white"/>
<circle cx="206.67" cy="266.645" r="2.66995" fill="white"/>
<circle cx="217.35" cy="266.645" r="2.66995" fill="white"/>
<circle cx="228.03" cy="266.645" r="2.66995" fill="white"/>
<circle cx="238.71" cy="266.645" r="2.66995" fill="white"/>
<circle cx="249.389" cy="266.645" r="2.66995" fill="white"/>
<circle cx="260.069" cy="266.645" r="2.66995" fill="white"/>
<circle cx="270.749" cy="266.645" r="2.66995" fill="white"/>
<circle cx="206.67" cy="277.325" r="2.66995" fill="white"/>
<circle cx="217.35" cy="277.325" r="2.66995" fill="white"/>
<circle cx="228.03" cy="277.325" r="2.66995" fill="white"/>
<circle cx="238.71" cy="277.325" r="2.66995" fill="white"/>
<circle cx="249.389" cy="277.325" r="2.66995" fill="white"/>
<circle cx="260.069" cy="277.325" r="2.66995" fill="white"/>
<circle cx="270.749" cy="277.325" r="2.66995" fill="white"/>
<circle cx="206.67" cy="288.005" r="2.66995" fill="white"/>
<circle cx="217.35" cy="288.005" r="2.66995" fill="white"/>
<circle cx="228.03" cy="288.005" r="2.66995" fill="white"/>
<circle cx="238.71" cy="288.005" r="2.66995" fill="white"/>
<circle cx="249.389" cy="288.005" r="2.66995" fill="white"/>
<circle cx="260.069" cy="288.005" r="2.66995" fill="white"/>
<circle cx="270.749" cy="288.005" r="2.66995" fill="white"/>
<circle cx="206.67" cy="298.685" r="2.66995" fill="white"/>
<circle cx="217.35" cy="298.685" r="2.66995" fill="white"/>
<circle cx="228.03" cy="298.685" r="2.66995" fill="white"/>
<circle cx="238.71" cy="298.685" r="2.66995" fill="white"/>
<circle cx="249.389" cy="298.685" r="2.66995" fill="white"/>
<circle cx="260.069" cy="298.685" r="2.66995" fill="white"/>
<circle cx="270.749" cy="298.685" r="2.66995" fill="white"/>
<circle cx="206.67" cy="309.365" r="2.66995" fill="white"/>
<circle cx="217.35" cy="309.365" r="2.66995" fill="white"/>
<circle cx="228.03" cy="309.365" r="2.66995" fill="white"/>
<circle cx="238.71" cy="309.365" r="2.66995" fill="white"/>
<circle cx="249.389" cy="309.365" r="2.66995" fill="white"/>
<circle cx="260.069" cy="309.365" r="2.66995" fill="white"/>
<circle cx="270.749" cy="309.365" r="2.66995" fill="white"/>
<circle cx="206.67" cy="320.044" r="2.66995" fill="white"/>
<circle cx="217.35" cy="320.044" r="2.66995" fill="white"/>
<circle cx="228.03" cy="320.044" r="2.66995" fill="white"/>
<circle cx="238.71" cy="320.044" r="2.66995" fill="white"/>
<circle cx="249.389" cy="320.044" r="2.66995" fill="white"/>
<circle cx="260.069" cy="320.044" r="2.66995" fill="white"/>
<circle cx="270.749" cy="320.044" r="2.66995" fill="white"/>
<circle cx="206.67" cy="330.724" r="2.66995" fill="white"/>
<circle cx="217.35" cy="330.724" r="2.66995" fill="white"/>
<circle cx="228.03" cy="330.724" r="2.66995" fill="white"/>
<circle cx="238.71" cy="330.724" r="2.66995" fill="white"/>
<circle cx="249.389" cy="330.724" r="2.66995" fill="white"/>
<circle cx="260.069" cy="330.724" r="2.66995" fill="white"/>
<circle cx="270.749" cy="330.724" r="2.66995" fill="white"/>
</g>
<g opacity="0.3">
<circle cx="132.67" cy="255.965" r="2.66995" fill="white"/>
<circle cx="143.35" cy="255.965" r="2.66995" fill="white"/>
<circle cx="154.03" cy="255.965" r="2.66995" fill="white"/>
<circle cx="164.71" cy="255.965" r="2.66995" fill="white"/>
<circle cx="175.389" cy="255.965" r="2.66995" fill="white"/>
<circle cx="186.069" cy="255.965" r="2.66995" fill="white"/>
<circle cx="196.749" cy="255.965" r="2.66995" fill="white"/>
<circle cx="132.67" cy="266.645" r="2.66995" fill="white"/>
<circle cx="143.35" cy="266.645" r="2.66995" fill="white"/>
<circle cx="154.03" cy="266.645" r="2.66995" fill="white"/>
<circle cx="164.71" cy="266.645" r="2.66995" fill="white"/>
<circle cx="175.389" cy="266.645" r="2.66995" fill="white"/>
<circle cx="186.069" cy="266.645" r="2.66995" fill="white"/>
<circle cx="196.749" cy="266.645" r="2.66995" fill="white"/>
<circle cx="132.67" cy="277.325" r="2.66995" fill="white"/>
<circle cx="143.35" cy="277.325" r="2.66995" fill="white"/>
<circle cx="154.03" cy="277.325" r="2.66995" fill="white"/>
<circle cx="164.71" cy="277.325" r="2.66995" fill="white"/>
<circle cx="175.389" cy="277.325" r="2.66995" fill="white"/>
<circle cx="186.069" cy="277.325" r="2.66995" fill="white"/>
<circle cx="196.749" cy="277.325" r="2.66995" fill="white"/>
<circle cx="132.67" cy="288.005" r="2.66995" fill="white"/>
<circle cx="143.35" cy="288.005" r="2.66995" fill="white"/>
<circle cx="154.03" cy="288.005" r="2.66995" fill="white"/>
<circle cx="164.71" cy="288.005" r="2.66995" fill="white"/>
<circle cx="175.389" cy="288.005" r="2.66995" fill="white"/>
<circle cx="186.069" cy="288.005" r="2.66995" fill="white"/>
<circle cx="196.749" cy="288.005" r="2.66995" fill="white"/>
<circle cx="132.67" cy="298.685" r="2.66995" fill="white"/>
<circle cx="143.35" cy="298.685" r="2.66995" fill="white"/>
<circle cx="154.03" cy="298.685" r="2.66995" fill="white"/>
<circle cx="164.71" cy="298.685" r="2.66995" fill="white"/>
<circle cx="175.389" cy="298.685" r="2.66995" fill="white"/>
<circle cx="186.069" cy="298.685" r="2.66995" fill="white"/>
<circle cx="196.749" cy="298.685" r="2.66995" fill="white"/>
<circle cx="132.67" cy="309.365" r="2.66995" fill="white"/>
<circle cx="143.35" cy="309.365" r="2.66995" fill="white"/>
<circle cx="154.03" cy="309.365" r="2.66995" fill="white"/>
<circle cx="164.71" cy="309.365" r="2.66995" fill="white"/>
<circle cx="175.389" cy="309.365" r="2.66995" fill="white"/>
<circle cx="186.069" cy="309.365" r="2.66995" fill="white"/>
<circle cx="196.749" cy="309.365" r="2.66995" fill="white"/>
<circle cx="132.67" cy="320.044" r="2.66995" fill="white"/>
<circle cx="143.35" cy="320.044" r="2.66995" fill="white"/>
<circle cx="154.03" cy="320.044" r="2.66995" fill="white"/>
<circle cx="164.71" cy="320.044" r="2.66995" fill="white"/>
<circle cx="175.389" cy="320.044" r="2.66995" fill="white"/>
<circle cx="186.069" cy="320.044" r="2.66995" fill="white"/>
<circle cx="196.749" cy="320.044" r="2.66995" fill="white"/>
<circle cx="132.67" cy="330.724" r="2.66995" fill="white"/>
<circle cx="143.35" cy="330.724" r="2.66995" fill="white"/>
<circle cx="154.03" cy="330.724" r="2.66995" fill="white"/>
<circle cx="164.71" cy="330.724" r="2.66995" fill="white"/>
<circle cx="175.389" cy="330.724" r="2.66995" fill="white"/>
<circle cx="186.069" cy="330.724" r="2.66995" fill="white"/>
<circle cx="196.749" cy="330.724" r="2.66995" fill="white"/>
</g>
<g opacity="0.3">
<circle cx="281.089" cy="255.965" r="2.66995" fill="white"/>
<circle cx="291.769" cy="255.965" r="2.66995" fill="white"/>
<circle cx="302.448" cy="255.965" r="2.66995" fill="white"/>
<circle cx="313.128" cy="255.965" r="2.66995" fill="white"/>
<circle cx="323.808" cy="255.965" r="2.66995" fill="white"/>
<circle cx="334.488" cy="255.965" r="2.66995" fill="white"/>
<circle cx="345.168" cy="255.965" r="2.66995" fill="white"/>
<circle cx="281.089" cy="266.645" r="2.66995" fill="white"/>
<circle cx="291.769" cy="266.645" r="2.66995" fill="white"/>
<circle cx="302.448" cy="266.645" r="2.66995" fill="white"/>
<circle cx="313.128" cy="266.645" r="2.66995" fill="white"/>
<circle cx="323.808" cy="266.645" r="2.66995" fill="white"/>
<circle cx="334.488" cy="266.645" r="2.66995" fill="white"/>
<circle cx="345.168" cy="266.645" r="2.66995" fill="white"/>
<circle cx="281.089" cy="277.325" r="2.66995" fill="white"/>
<circle cx="291.769" cy="277.325" r="2.66995" fill="white"/>
<circle cx="302.448" cy="277.325" r="2.66995" fill="white"/>
<circle cx="313.128" cy="277.325" r="2.66995" fill="white"/>
<circle cx="323.808" cy="277.325" r="2.66995" fill="white"/>
<circle cx="334.488" cy="277.325" r="2.66995" fill="white"/>
<circle cx="345.168" cy="277.325" r="2.66995" fill="white"/>
<circle cx="281.089" cy="288.005" r="2.66995" fill="white"/>
<circle cx="291.769" cy="288.005" r="2.66995" fill="white"/>
<circle cx="302.448" cy="288.005" r="2.66995" fill="white"/>
<circle cx="313.128" cy="288.005" r="2.66995" fill="white"/>
<circle cx="323.808" cy="288.005" r="2.66995" fill="white"/>
<circle cx="334.488" cy="288.005" r="2.66995" fill="white"/>
<circle cx="345.168" cy="288.005" r="2.66995" fill="white"/>
<circle cx="281.089" cy="298.685" r="2.66995" fill="white"/>
<circle cx="291.769" cy="298.685" r="2.66995" fill="white"/>
<circle cx="302.448" cy="298.685" r="2.66995" fill="white"/>
<circle cx="313.128" cy="298.685" r="2.66995" fill="white"/>
<circle cx="323.808" cy="298.685" r="2.66995" fill="white"/>
<circle cx="334.488" cy="298.685" r="2.66995" fill="white"/>
<circle cx="345.168" cy="298.685" r="2.66995" fill="white"/>
<circle cx="281.089" cy="309.365" r="2.66995" fill="white"/>
<circle cx="291.769" cy="309.365" r="2.66995" fill="white"/>
<circle cx="302.448" cy="309.365" r="2.66995" fill="white"/>
<circle cx="313.128" cy="309.365" r="2.66995" fill="white"/>
<circle cx="323.808" cy="309.365" r="2.66995" fill="white"/>
<circle cx="334.488" cy="309.365" r="2.66995" fill="white"/>
<circle cx="345.168" cy="309.365" r="2.66995" fill="white"/>
<circle cx="281.089" cy="320.044" r="2.66995" fill="white"/>
<circle cx="291.769" cy="320.044" r="2.66995" fill="white"/>
<circle cx="302.448" cy="320.044" r="2.66995" fill="white"/>
<circle cx="313.128" cy="320.044" r="2.66995" fill="white"/>
<circle cx="323.808" cy="320.044" r="2.66995" fill="white"/>
<circle cx="334.488" cy="320.044" r="2.66995" fill="white"/>
<circle cx="345.168" cy="320.044" r="2.66995" fill="white"/>
<circle cx="281.089" cy="330.724" r="2.66995" fill="white"/>
<circle cx="291.769" cy="330.724" r="2.66995" fill="white"/>
<circle cx="302.448" cy="330.724" r="2.66995" fill="white"/>
<circle cx="313.128" cy="330.724" r="2.66995" fill="white"/>
<circle cx="323.808" cy="330.724" r="2.66995" fill="white"/>
<circle cx="334.488" cy="330.724" r="2.66995" fill="white"/>
<circle cx="345.168" cy="330.724" r="2.66995" fill="white"/>
</g>
</mask>
<g mask="url(#mask0_1255_12284)">
<circle cx="206" cy="162" r="134" fill="#C4C4C4"/>
</g>
<rect x="134.113" y="83" width="363.113" height="289.69" rx="12" fill="white"/>
<path d="M134.113 95C134.113 88.3726 139.486 83 146.113 83H485.227C491.854 83 497.227 88.3726 497.227 95V136.399H134.113V95Z" fill="#1E2C4F"/>
<path d="M155.008 113.135C156.676 113.135 157.804 112.043 157.804 110.663C157.804 109.451 156.928 108.695 155.536 108.347L154.492 108.083C153.448 107.819 153.364 107.267 153.364 107.003C153.364 106.247 154.06 105.779 154.84 105.779C155.692 105.779 156.304 106.307 156.304 107.087H157.528C157.528 105.587 156.364 104.651 154.876 104.651C153.412 104.651 152.128 105.575 152.128 107.027C152.128 107.711 152.416 108.755 154.18 109.199L155.236 109.463C155.908 109.643 156.568 109.991 156.568 110.723C156.568 111.407 155.992 112.007 155.008 112.007C153.976 112.007 153.316 111.323 153.292 110.615H152.068C152.068 111.947 153.244 113.135 155.008 113.135ZM161.887 113.123C162.799 113.123 163.579 112.751 164.071 112.163L163.291 111.431C162.967 111.791 162.475 112.019 161.911 112.019C160.867 112.019 160.039 111.275 160.039 110.207C160.039 109.139 160.867 108.395 161.911 108.395C162.475 108.395 162.967 108.623 163.291 108.983L164.071 108.251C163.579 107.663 162.799 107.291 161.887 107.291C160.267 107.291 158.863 108.431 158.863 110.207C158.863 111.983 160.267 113.123 161.887 113.123ZM168.34 107.291C167.74 107.291 166.84 107.579 166.516 108.263V104.375H165.34V113.015H166.516V110.027C166.516 108.863 167.404 108.455 168.136 108.455C168.856 108.455 169.408 108.983 169.408 109.895V113.015H170.584V109.811C170.596 108.215 169.756 107.291 168.34 107.291ZM177.606 110.183C177.606 108.419 176.394 107.291 174.798 107.291C173.202 107.291 171.906 108.419 171.906 110.195C171.906 111.971 173.178 113.135 174.798 113.135C175.866 113.135 176.874 112.655 177.366 111.719L176.43 111.251C176.118 111.767 175.506 112.043 174.858 112.043C173.946 112.043 173.274 111.599 173.118 110.687H177.582C177.594 110.507 177.606 110.339 177.606 110.183ZM173.13 109.739C173.298 108.815 173.946 108.383 174.81 108.383C175.674 108.383 176.322 108.863 176.43 109.739H173.13ZM183.337 104.375V108.239C182.965 107.603 182.185 107.291 181.393 107.291C179.881 107.291 178.621 108.419 178.621 110.207C178.621 111.983 179.881 113.135 181.405 113.135C182.161 113.135 182.965 112.811 183.337 112.175V113.015H184.513V104.375H183.337ZM181.537 112.019C180.577 112.019 179.797 111.239 179.797 110.195C179.797 109.139 180.577 108.407 181.537 108.407C182.401 108.407 183.325 109.067 183.325 110.195C183.325 111.323 182.485 112.019 181.537 112.019ZM190.266 107.411V110.411C190.266 111.563 189.378 111.971 188.646 111.971C187.926 111.971 187.374 111.443 187.374 110.531V107.411H186.198V110.615C186.186 112.211 187.038 113.135 188.454 113.135C189.042 113.135 189.942 112.847 190.266 112.163V113.015H191.442V107.411H190.266ZM193.196 113.015H194.372V104.375H193.196V113.015ZM201.477 110.183C201.477 108.419 200.265 107.291 198.669 107.291C197.073 107.291 195.777 108.419 195.777 110.195C195.777 111.971 197.049 113.135 198.669 113.135C199.737 113.135 200.745 112.655 201.237 111.719L200.301 111.251C199.989 111.767 199.377 112.043 198.729 112.043C197.817 112.043 197.145 111.599 196.989 110.687H201.453C201.465 110.507 201.477 110.339 201.477 110.183ZM197.001 109.739C197.169 108.815 197.817 108.383 198.681 108.383C199.545 108.383 200.193 108.863 200.301 109.739H197.001ZM209.38 104.747H206.068V113.015H207.304V109.955H209.38C211.156 109.955 211.9 108.683 211.9 107.363C211.9 106.055 211.156 104.747 209.38 104.747ZM209.308 108.827H207.304V105.875H209.356C210.28 105.875 210.664 106.631 210.664 107.363C210.664 108.095 210.268 108.827 209.308 108.827ZM215.877 107.291C215.157 107.291 214.593 107.687 214.305 108.671V107.411H213.117V113.015H214.305V110.999C214.305 109.487 214.785 108.419 215.805 108.419C216.033 108.419 216.321 108.467 216.633 108.611L216.837 107.495C216.657 107.387 216.261 107.291 215.877 107.291ZM220.268 113.135C221.864 113.135 223.22 111.971 223.22 110.195C223.22 108.419 221.864 107.291 220.268 107.291C218.672 107.291 217.328 108.419 217.328 110.195C217.328 111.971 218.672 113.135 220.268 113.135ZM220.268 112.019C219.308 112.019 218.504 111.287 218.504 110.195C218.504 109.115 219.308 108.395 220.268 108.395C221.228 108.395 222.044 109.115 222.044 110.195C222.044 111.287 221.228 112.019 220.268 112.019ZM228.982 107.411V108.227C228.598 107.603 227.818 107.291 227.038 107.291C225.526 107.291 224.266 108.419 224.266 110.207C224.266 111.983 225.526 113.135 227.05 113.135C227.794 113.135 228.598 112.811 228.982 112.199V112.271C228.982 114.047 228.25 114.719 227.074 114.719C226.462 114.719 225.814 114.371 225.502 113.771L224.506 114.263C225.034 115.259 226.018 115.811 227.074 115.811C228.958 115.811 230.158 114.779 230.158 112.175V107.411H228.982ZM227.182 112.019C226.222 112.019 225.442 111.239 225.442 110.195C225.442 109.139 226.222 108.407 227.182 108.407C228.046 108.407 228.97 109.067 228.97 110.195C228.97 111.323 228.13 112.019 227.182 112.019ZM234.674 107.291C233.954 107.291 233.39 107.687 233.102 108.671V107.411H231.914V113.015H233.102V110.999C233.102 109.487 233.582 108.419 234.602 108.419C234.83 108.419 235.118 108.467 235.43 108.611L235.634 107.495C235.454 107.387 235.058 107.291 234.674 107.291ZM240.853 107.411V108.239C240.481 107.603 239.701 107.291 238.909 107.291C237.397 107.291 236.137 108.419 236.137 110.207C236.137 111.983 237.397 113.135 238.921 113.135C239.677 113.135 240.481 112.811 240.853 112.175V113.015H242.029V107.411H240.853ZM239.053 112.019C238.093 112.019 237.313 111.239 237.313 110.195C237.313 109.139 238.093 108.407 239.053 108.407C239.917 108.407 240.841 109.067 240.841 110.195C240.841 111.323 240.001 112.019 239.053 112.019ZM250.469 107.291C249.917 107.291 249.041 107.471 248.537 108.419C248.213 107.699 247.517 107.291 246.713 107.291C245.945 107.291 245.213 107.675 244.961 108.299V107.411H243.785V113.015H244.961V110.015C244.961 108.875 245.705 108.431 246.437 108.431C247.133 108.431 247.613 108.959 247.613 109.883V113.015H248.801V109.823C248.873 108.995 249.401 108.419 250.205 108.431C250.961 108.431 251.441 108.971 251.441 109.895V113.015H252.629V109.811C252.629 108.215 251.873 107.291 250.469 107.291Z" fill="white"/>
<rect x="468.5" y="156.5" width="56.4039" height="27.0345" rx="13.5172" fill="#345EFF" stroke="white"/>
<rect x="502.709" y="161.34" width="16.0197" height="16.0197" rx="8.00985" fill="#1FD0C6"/>
<path d="M155.825 165.361V164.605H160.328V165.361H158.513V170.424H157.638V165.361H155.825ZM161.255 170.424V166.06H162.104V170.424H161.255ZM161.684 165.387C161.536 165.387 161.409 165.337 161.303 165.239C161.199 165.139 161.147 165.019 161.147 164.881C161.147 164.741 161.199 164.622 161.303 164.523C161.409 164.423 161.536 164.372 161.684 164.372C161.832 164.372 161.958 164.423 162.062 164.523C162.168 164.622 162.221 164.741 162.221 164.881C162.221 165.019 162.168 165.139 162.062 165.239C161.958 165.337 161.832 165.387 161.684 165.387ZM163.247 170.424V166.06H164.062V166.77H164.116C164.207 166.53 164.356 166.342 164.562 166.208C164.769 166.071 165.016 166.003 165.304 166.003C165.596 166.003 165.84 166.071 166.037 166.208C166.236 166.344 166.382 166.532 166.477 166.77H166.523C166.627 166.537 166.793 166.352 167.02 166.213C167.247 166.073 167.518 166.003 167.832 166.003C168.228 166.003 168.551 166.127 168.801 166.375C169.053 166.623 169.179 166.997 169.179 167.497V170.424H168.329V167.577C168.329 167.282 168.249 167.068 168.088 166.935C167.927 166.802 167.735 166.736 167.511 166.736C167.235 166.736 167.02 166.821 166.866 166.992C166.713 167.16 166.636 167.377 166.636 167.642V170.424H165.79V167.523C165.79 167.286 165.716 167.096 165.568 166.952C165.42 166.808 165.228 166.736 164.991 166.736C164.83 166.736 164.682 166.779 164.545 166.864C164.411 166.947 164.302 167.064 164.219 167.213C164.137 167.363 164.096 167.536 164.096 167.733V170.424H163.247ZM172.198 170.512C171.768 170.512 171.398 170.42 171.087 170.236C170.779 170.051 170.54 169.79 170.371 169.455C170.205 169.118 170.121 168.723 170.121 168.27C170.121 167.823 170.205 167.429 170.371 167.088C170.54 166.747 170.775 166.481 171.076 166.29C171.379 166.099 171.733 166.003 172.138 166.003C172.385 166.003 172.623 166.044 172.854 166.125C173.085 166.207 173.293 166.335 173.476 166.509C173.66 166.683 173.805 166.909 173.911 167.188C174.017 167.464 174.07 167.801 174.07 168.196V168.497H170.601V167.861H173.238C173.238 167.638 173.192 167.44 173.101 167.267C173.011 167.093 172.883 166.956 172.718 166.855C172.555 166.755 172.364 166.705 172.144 166.705C171.905 166.705 171.697 166.764 171.519 166.881C171.343 166.997 171.207 167.148 171.11 167.336C171.015 167.521 170.968 167.723 170.968 167.941V168.438C170.968 168.729 171.019 168.978 171.121 169.182C171.226 169.387 171.37 169.543 171.556 169.651C171.742 169.757 171.958 169.81 172.207 169.81C172.368 169.81 172.514 169.787 172.647 169.742C172.779 169.694 172.894 169.624 172.991 169.532C173.087 169.439 173.161 169.324 173.212 169.188L174.016 169.333C173.952 169.569 173.836 169.777 173.67 169.955C173.505 170.131 173.297 170.268 173.047 170.367C172.799 170.463 172.516 170.512 172.198 170.512Z" fill="#1E2C4F"/>
<rect x="155.473" y="177.783" width="106.798" height="26.6995" rx="4" fill="#F0F1F9"/>
<path d="M156.112 234.502V228.684H158.186C158.637 228.684 159.011 228.762 159.308 228.917C159.607 229.073 159.831 229.287 159.979 229.562C160.126 229.835 160.2 230.15 160.2 230.508C160.2 230.864 160.125 231.178 159.976 231.448C159.828 231.717 159.605 231.927 159.305 232.076C159.008 232.226 158.634 232.301 158.183 232.301H156.612V231.545H158.104C158.388 231.545 158.619 231.504 158.797 231.423C158.977 231.341 159.108 231.223 159.192 231.068C159.275 230.912 159.317 230.726 159.317 230.508C159.317 230.288 159.274 230.098 159.189 229.937C159.105 229.776 158.974 229.653 158.794 229.568C158.616 229.481 158.382 229.437 158.092 229.437H156.99V234.502H156.112ZM158.984 231.877L160.422 234.502H159.422L158.013 231.877H158.984ZM163.964 232.693V230.139H164.817V234.502H163.981V233.747H163.936C163.836 233.98 163.675 234.174 163.453 234.329C163.233 234.483 162.96 234.559 162.632 234.559C162.352 234.559 162.104 234.498 161.888 234.375C161.674 234.25 161.505 234.065 161.382 233.821C161.261 233.576 161.2 233.274 161.2 232.914V230.139H162.05V232.812C162.05 233.109 162.132 233.346 162.297 233.522C162.462 233.698 162.676 233.787 162.939 233.787C163.098 233.787 163.256 233.747 163.413 233.667C163.572 233.588 163.704 233.467 163.808 233.306C163.914 233.145 163.966 232.941 163.964 232.693ZM166.807 228.684V234.502H165.958V228.684H166.807ZM169.831 234.591C169.401 234.591 169.031 234.499 168.72 234.315C168.411 234.129 168.173 233.869 168.004 233.534C167.837 233.197 167.754 232.802 167.754 232.349C167.754 231.902 167.837 231.508 168.004 231.167C168.173 230.826 168.408 230.56 168.709 230.369C169.012 230.178 169.366 230.082 169.771 230.082C170.017 230.082 170.256 230.123 170.487 230.204C170.718 230.286 170.926 230.413 171.109 230.588C171.293 230.762 171.438 230.988 171.544 231.267C171.65 231.543 171.703 231.879 171.703 232.275V232.576H168.234V231.94H170.871C170.871 231.716 170.825 231.519 170.734 231.346C170.643 231.172 170.516 231.035 170.351 230.934C170.188 230.834 169.997 230.784 169.777 230.784C169.538 230.784 169.33 230.842 169.152 230.96C168.976 231.075 168.839 231.227 168.743 231.414C168.648 231.6 168.601 231.802 168.601 232.019V232.517C168.601 232.808 168.652 233.056 168.754 233.261C168.858 233.466 169.003 233.622 169.189 233.73C169.374 233.836 169.591 233.889 169.839 233.889C170 233.889 170.147 233.866 170.28 233.821C170.412 233.773 170.527 233.703 170.623 233.61C170.72 233.518 170.794 233.403 170.845 233.267L171.649 233.412C171.585 233.648 171.469 233.856 171.302 234.034C171.138 234.21 170.93 234.347 170.68 234.446C170.432 234.542 170.149 234.591 169.831 234.591Z" fill="#1E2C4F"/>
<rect x="155.473" y="241.862" width="320.394" height="110.803" rx="4" fill="#F0F1F9"/>
<g filter="url(#filter0_d_1255_12284)">
<rect x="40" y="279.966" width="258.985" height="53.399" rx="8" fill="white"/>
</g>
<rect x="228.5" y="295.466" width="54" height="23" rx="11.5" stroke="#1E2C4F"/>
<rect x="261" y="298.966" width="16.0197" height="15.2569" rx="7.62843" fill="#1FD0C6"/>
<path d="M56.8806 310.966V302.238H60.1533C60.8238 302.238 61.3863 302.355 61.8408 302.588C62.2982 302.821 62.6434 303.147 62.8763 303.568C63.1121 303.985 63.23 304.473 63.23 305.029C63.23 305.589 63.1107 306.075 62.872 306.487C62.6363 306.896 62.2882 307.213 61.828 307.437C61.3678 307.659 60.8024 307.769 60.132 307.769H57.801V306.457H59.9189C60.311 306.457 60.632 306.403 60.882 306.295C61.132 306.184 61.3167 306.024 61.436 305.814C61.5581 305.6 61.6192 305.339 61.6192 305.029C61.6192 304.72 61.5581 304.456 61.436 304.237C61.3138 304.015 61.1277 303.848 60.8777 303.734C60.6277 303.618 60.3053 303.559 59.9104 303.559H58.4615V310.966H56.8806ZM61.3891 307.011L63.5496 310.966H61.7854L59.6632 307.011H61.3891ZM67.4211 311.093C66.7648 311.093 66.198 310.957 65.7208 310.684C65.2463 310.409 64.8813 310.019 64.6256 309.517C64.3699 309.011 64.2421 308.416 64.2421 307.731C64.2421 307.058 64.3699 306.467 64.6256 305.958C64.8841 305.447 65.2449 305.049 65.708 304.765C66.1711 304.478 66.7151 304.335 67.3401 304.335C67.7435 304.335 68.1242 304.4 68.4821 304.531C68.8429 304.659 69.1611 304.858 69.4367 305.127C69.7151 305.397 69.9338 305.741 70.0929 306.159C70.252 306.573 70.3316 307.068 70.3316 307.642V308.115H64.9665V307.075H68.8529C68.85 306.779 68.7861 306.517 68.6611 306.287C68.5361 306.054 68.3614 305.87 68.137 305.737C67.9154 305.603 67.6568 305.537 67.3614 305.537C67.0461 305.537 66.7691 305.613 66.5304 305.767C66.2918 305.917 66.1057 306.116 65.9722 306.363C65.8415 306.608 65.7747 306.876 65.7719 307.169V308.076C65.7719 308.457 65.8415 308.784 65.9807 309.056C66.1199 309.326 66.3145 309.534 66.5645 309.679C66.8145 309.821 67.1071 309.892 67.4424 309.892C67.6668 309.892 67.8699 309.86 68.0517 309.798C68.2336 309.733 68.3912 309.637 68.5247 309.512C68.6583 309.387 68.7591 309.233 68.8273 309.048L70.2676 309.21C70.1767 309.591 70.0034 309.923 69.7478 310.207C69.4949 310.488 69.1711 310.707 68.7762 310.863C68.3813 311.017 67.9296 311.093 67.4211 311.093ZM73.1792 302.238V310.966H71.6366V302.238H73.1792ZM77.6632 311.093C77.007 311.093 76.4402 310.957 75.963 310.684C75.4885 310.409 75.1235 310.019 74.8678 309.517C74.6121 309.011 74.4843 308.416 74.4843 307.731C74.4843 307.058 74.6121 306.467 74.8678 305.958C75.1263 305.447 75.4871 305.049 75.9502 304.765C76.4132 304.478 76.9573 304.335 77.5823 304.335C77.9857 304.335 78.3664 304.4 78.7243 304.531C79.0851 304.659 79.4033 304.858 79.6789 305.127C79.9573 305.397 80.176 305.741 80.3351 306.159C80.4942 306.573 80.5738 307.068 80.5738 307.642V308.115H75.2087V307.075H79.0951C79.0922 306.779 79.0283 306.517 78.9033 306.287C78.7783 306.054 78.6036 305.87 78.3792 305.737C78.1576 305.603 77.899 305.537 77.6036 305.537C77.2882 305.537 77.0113 305.613 76.7726 305.767C76.534 305.917 76.3479 306.116 76.2144 306.363C76.0837 306.608 76.0169 306.876 76.0141 307.169V308.076C76.0141 308.457 76.0837 308.784 76.2229 309.056C76.3621 309.326 76.5567 309.534 76.8067 309.679C77.0567 309.821 77.3493 309.892 77.6845 309.892C77.909 309.892 78.1121 309.86 78.2939 309.798C78.4757 309.733 78.6334 309.637 78.7669 309.512C78.9005 309.387 79.0013 309.233 79.0695 309.048L80.5098 309.21C80.4189 309.591 80.2456 309.923 79.9899 310.207C79.7371 310.488 79.4132 310.707 79.0184 310.863C78.6235 311.017 78.1718 311.093 77.6632 311.093ZM83.7623 311.098C83.3475 311.098 82.974 311.024 82.6416 310.876C82.312 310.725 82.0507 310.504 81.8575 310.211C81.6671 309.919 81.572 309.558 81.572 309.129C81.572 308.76 81.6402 308.454 81.7765 308.213C81.9129 307.971 82.099 307.778 82.3348 307.633C82.5706 307.488 82.8362 307.379 83.1316 307.305C83.4299 307.228 83.7382 307.173 84.0564 307.139C84.4399 307.099 84.751 307.064 84.9896 307.032C85.2282 306.998 85.4015 306.947 85.5095 306.879C85.6203 306.808 85.6757 306.698 85.6757 306.551V306.525C85.6757 306.204 85.5805 305.956 85.3902 305.779C85.1998 305.603 84.9257 305.515 84.5677 305.515C84.1899 305.515 83.8902 305.598 83.6686 305.762C83.4498 305.927 83.3021 306.122 83.2254 306.346L81.785 306.142C81.8987 305.744 82.0862 305.412 82.3475 305.144C82.6089 304.875 82.9285 304.673 83.3064 304.539C83.6842 304.403 84.1018 304.335 84.5592 304.335C84.8745 304.335 85.1885 304.372 85.501 304.446C85.8135 304.519 86.099 304.642 86.3575 304.812C86.616 304.98 86.8234 305.208 86.9796 305.498C87.1387 305.788 87.2183 306.15 87.2183 306.585V310.966H85.7353V310.066H85.6842C85.5904 310.248 85.4583 310.419 85.2879 310.578C85.1203 310.734 84.9086 310.86 84.6529 310.957C84.4001 311.051 84.1032 311.098 83.7623 311.098ZM84.1629 309.964C84.4725 309.964 84.741 309.903 84.9683 309.781C85.1956 309.656 85.3703 309.491 85.4924 309.287C85.6174 309.082 85.6799 308.859 85.6799 308.618V307.846C85.6316 307.886 85.5493 307.923 85.4328 307.957C85.3191 307.991 85.1913 308.021 85.0492 308.046C84.9072 308.072 84.7666 308.095 84.6274 308.115C84.4882 308.135 84.3674 308.152 84.2652 308.166C84.035 308.197 83.8291 308.248 83.6473 308.319C83.4654 308.39 83.322 308.49 83.2169 308.618C83.1117 308.743 83.0592 308.904 83.0592 309.103C83.0592 309.387 83.1629 309.602 83.3703 309.747C83.5777 309.892 83.8419 309.964 84.1629 309.964ZM93.9427 306.15L92.5365 306.304C92.4967 306.162 92.4271 306.028 92.3277 305.903C92.2311 305.778 92.1004 305.677 91.9356 305.6C91.7708 305.524 91.5691 305.485 91.3305 305.485C91.0095 305.485 90.7396 305.555 90.5208 305.694C90.3049 305.833 90.1984 306.014 90.2012 306.235C90.1984 306.426 90.268 306.581 90.41 306.7C90.5549 306.819 90.7936 306.917 91.126 306.994L92.2424 307.233C92.8617 307.366 93.322 307.578 93.6231 307.868C93.9271 308.157 94.0805 308.537 94.0833 309.005C94.0805 309.417 93.9598 309.781 93.7211 310.096C93.4853 310.409 93.1572 310.653 92.7367 310.829C92.3163 311.005 91.8333 311.093 91.2879 311.093C90.4867 311.093 89.8419 310.926 89.3532 310.591C88.8646 310.252 88.5734 309.782 88.4796 309.18L89.9839 309.035C90.0521 309.331 90.197 309.554 90.4186 309.704C90.6402 309.855 90.9285 309.93 91.2836 309.93C91.6501 309.93 91.9441 309.855 92.1657 309.704C92.3902 309.554 92.5024 309.368 92.5024 309.146C92.5024 308.958 92.4299 308.804 92.285 308.681C92.143 308.559 91.9214 308.466 91.6203 308.4L90.5038 308.166C89.876 308.035 89.4115 307.815 89.1103 307.505C88.8092 307.193 88.66 306.798 88.6629 306.321C88.66 305.917 88.7694 305.568 88.991 305.272C89.2154 304.974 89.5265 304.744 89.9242 304.582C90.3248 304.417 90.7865 304.335 91.3092 304.335C92.0762 304.335 92.6799 304.498 93.1203 304.825C93.5635 305.152 93.8376 305.593 93.9427 306.15ZM98.2531 311.093C97.5968 311.093 97.0301 310.957 96.5528 310.684C96.0784 310.409 95.7133 310.019 95.4576 309.517C95.2019 309.011 95.0741 308.416 95.0741 307.731C95.0741 307.058 95.2019 306.467 95.4576 305.958C95.7162 305.447 96.0769 305.049 96.54 304.765C97.0031 304.478 97.5471 304.335 98.1721 304.335C98.5755 304.335 98.9562 304.4 99.3142 304.531C99.675 304.659 99.9931 304.858 100.269 305.127C100.547 305.397 100.766 305.741 100.925 306.159C101.084 306.573 101.164 307.068 101.164 307.642V308.115H95.7985V307.075H99.6849C99.6821 306.779 99.6181 306.517 99.4931 306.287C99.3681 306.054 99.1934 305.87 98.969 305.737C98.7474 305.603 98.4889 305.537 98.1934 305.537C97.8781 305.537 97.6011 305.613 97.3625 305.767C97.1238 305.917 96.9377 306.116 96.8042 306.363C96.6735 306.608 96.6068 306.876 96.6039 307.169V308.076C96.6039 308.457 96.6735 308.784 96.8127 309.056C96.9519 309.326 97.1466 309.534 97.3966 309.679C97.6466 309.821 97.9392 309.892 98.2744 309.892C98.4988 309.892 98.7019 309.86 98.8838 309.798C99.0656 309.733 99.2233 309.637 99.3568 309.512C99.4903 309.387 99.5912 309.233 99.6593 309.048L101.1 309.21C101.009 309.591 100.835 309.923 100.58 310.207C100.327 310.488 100.003 310.707 99.6082 310.863C99.2133 311.017 98.7616 311.093 98.2531 311.093ZM105.513 310.966V302.238H111.104V303.564H107.094V305.933H110.721V307.258H107.094V310.966H105.513ZM114.894 311.093C114.237 311.093 113.671 310.957 113.193 310.684C112.719 310.409 112.354 310.019 112.098 309.517C111.843 309.011 111.715 308.416 111.715 307.731C111.715 307.058 111.843 306.467 112.098 305.958C112.357 305.447 112.718 305.049 113.181 304.765C113.644 304.478 114.188 304.335 114.813 304.335C115.216 304.335 115.597 304.4 115.955 304.531C116.316 304.659 116.634 304.858 116.909 305.127C117.188 305.397 117.406 305.741 117.566 306.159C117.725 306.573 117.804 307.068 117.804 307.642V308.115H112.439V307.075H116.326C116.323 306.779 116.259 306.517 116.134 306.287C116.009 306.054 115.834 305.87 115.61 305.737C115.388 305.603 115.13 305.537 114.834 305.537C114.519 305.537 114.242 305.613 114.003 305.767C113.764 305.917 113.578 306.116 113.445 306.363C113.314 306.608 113.247 306.876 113.245 307.169V308.076C113.245 308.457 113.314 308.784 113.453 309.056C113.593 309.326 113.787 309.534 114.037 309.679C114.287 309.821 114.58 309.892 114.915 309.892C115.139 309.892 115.343 309.86 115.524 309.798C115.706 309.733 115.864 309.637 115.997 309.512C116.131 309.387 116.232 309.233 116.3 309.048L117.74 309.21C117.649 309.591 117.476 309.923 117.22 310.207C116.968 310.488 116.644 310.707 116.249 310.863C115.854 311.017 115.402 311.093 114.894 311.093ZM120.993 311.098C120.578 311.098 120.204 311.024 119.872 310.876C119.543 310.725 119.281 310.504 119.088 310.211C118.898 309.919 118.802 309.558 118.802 309.129C118.802 308.76 118.871 308.454 119.007 308.213C119.143 307.971 119.329 307.778 119.565 307.633C119.801 307.488 120.067 307.379 120.362 307.305C120.66 307.228 120.969 307.173 121.287 307.139C121.67 307.099 121.981 307.064 122.22 307.032C122.459 306.998 122.632 306.947 122.74 306.879C122.851 306.808 122.906 306.698 122.906 306.551V306.525C122.906 306.204 122.811 305.956 122.621 305.779C122.43 305.603 122.156 305.515 121.798 305.515C121.42 305.515 121.121 305.598 120.899 305.762C120.68 305.927 120.533 306.122 120.456 306.346L119.016 306.142C119.129 305.744 119.317 305.412 119.578 305.144C119.839 304.875 120.159 304.673 120.537 304.539C120.915 304.403 121.332 304.335 121.79 304.335C122.105 304.335 122.419 304.372 122.731 304.446C123.044 304.519 123.329 304.642 123.588 304.812C123.846 304.98 124.054 305.208 124.21 305.498C124.369 305.788 124.449 306.15 124.449 306.585V310.966H122.966V310.066H122.915C122.821 310.248 122.689 310.419 122.518 310.578C122.351 310.734 122.139 310.86 121.883 310.957C121.631 311.051 121.334 311.098 120.993 311.098ZM121.393 309.964C121.703 309.964 121.971 309.903 122.199 309.781C122.426 309.656 122.601 309.491 122.723 309.287C122.848 309.082 122.91 308.859 122.91 308.618V307.846C122.862 307.886 122.78 307.923 122.663 307.957C122.55 307.991 122.422 308.021 122.28 308.046C122.138 308.072 121.997 308.095 121.858 308.115C121.719 308.135 121.598 308.152 121.496 308.166C121.266 308.197 121.06 308.248 120.878 308.319C120.696 308.39 120.552 308.49 120.447 308.618C120.342 308.743 120.29 308.904 120.29 309.103C120.29 309.387 120.393 309.602 120.601 309.747C120.808 309.892 121.072 309.964 121.393 309.964ZM129.268 304.42V305.613H125.506V304.42H129.268ZM126.435 302.852H127.977V308.997C127.977 309.204 128.008 309.363 128.071 309.474C128.136 309.582 128.221 309.656 128.327 309.696C128.432 309.735 128.548 309.755 128.676 309.755C128.773 309.755 128.861 309.748 128.94 309.734C129.023 309.72 129.085 309.707 129.128 309.696L129.388 310.902C129.305 310.93 129.187 310.961 129.034 310.995C128.883 311.029 128.699 311.049 128.48 311.055C128.094 311.066 127.746 311.008 127.436 310.88C127.126 310.75 126.881 310.548 126.699 310.275C126.52 310.002 126.432 309.662 126.435 309.252V302.852ZM134.73 308.213V304.42H136.273V310.966H134.777V309.802H134.709C134.561 310.169 134.318 310.468 133.98 310.701C133.645 310.934 133.232 311.051 132.74 311.051C132.311 311.051 131.932 310.956 131.603 310.765C131.276 310.572 131.02 310.292 130.835 309.926C130.651 309.556 130.558 309.11 130.558 308.588V304.42H132.101V308.349C132.101 308.764 132.215 309.093 132.442 309.338C132.669 309.582 132.968 309.704 133.337 309.704C133.564 309.704 133.784 309.649 133.997 309.538C134.21 309.427 134.385 309.262 134.522 309.044C134.661 308.822 134.73 308.545 134.73 308.213ZM137.859 310.966V304.42H139.355V305.511H139.423C139.543 305.133 139.747 304.842 140.037 304.637C140.329 304.43 140.663 304.326 141.038 304.326C141.123 304.326 141.219 304.331 141.324 304.339C141.432 304.345 141.521 304.355 141.592 304.369V305.788C141.527 305.765 141.423 305.745 141.281 305.728C141.142 305.708 141.007 305.698 140.876 305.698C140.595 305.698 140.342 305.76 140.118 305.882C139.896 306.001 139.721 306.167 139.594 306.38C139.466 306.593 139.402 306.839 139.402 307.118V310.966H137.859ZM145.245 311.093C144.589 311.093 144.022 310.957 143.545 310.684C143.071 310.409 142.705 310.019 142.45 309.517C142.194 309.011 142.066 308.416 142.066 307.731C142.066 307.058 142.194 306.467 142.45 305.958C142.708 305.447 143.069 305.049 143.532 304.765C143.995 304.478 144.539 304.335 145.164 304.335C145.568 304.335 145.948 304.4 146.306 304.531C146.667 304.659 146.985 304.858 147.261 305.127C147.539 305.397 147.758 305.741 147.917 306.159C148.076 306.573 148.156 307.068 148.156 307.642V308.115H142.791V307.075H146.677C146.674 306.779 146.61 306.517 146.485 306.287C146.36 306.054 146.186 305.87 145.961 305.737C145.74 305.603 145.481 305.537 145.186 305.537C144.87 305.537 144.593 305.613 144.355 305.767C144.116 305.917 143.93 306.116 143.796 306.363C143.666 306.608 143.599 306.876 143.596 307.169V308.076C143.596 308.457 143.666 308.784 143.805 309.056C143.944 309.326 144.139 309.534 144.389 309.679C144.639 309.821 144.931 309.892 145.267 309.892C145.491 309.892 145.694 309.86 145.876 309.798C146.058 309.733 146.215 309.637 146.349 309.512C146.482 309.387 146.583 309.233 146.652 309.048L148.092 309.21C148.001 309.591 147.828 309.923 147.572 310.207C147.319 310.488 146.995 310.707 146.6 310.863C146.205 311.017 145.754 311.093 145.245 311.093Z" fill="#1E2C4F"/>
<g filter="url(#filter1_d_1255_12284)">
<rect x="399.773" y="261.887" width="130.828" height="130.828" rx="13.0667" fill="#FF6C6C"/>
</g>
<g clip-path="url(#clip0_1255_12284)">
<path d="M465.677 369.36C442.718 369.36 424.107 350.749 424.107 327.79C424.107 304.831 442.718 286.22 465.677 286.22C488.636 286.22 507.246 304.831 507.246 327.79C507.246 350.749 488.636 369.36 465.677 369.36ZM461.532 344.418L490.922 315.024L485.044 309.146L461.532 332.662L449.772 320.902L443.894 326.78L461.532 344.418Z" fill="white"/>
</g>
<defs>
<filter id="filter0_d_1255_12284" x="0" y="251.966" width="338.985" height="133.399" filterUnits="userSpaceOnUse" color-interpolation-filters="sRGB">
<feFlood flood-opacity="0" result="BackgroundImageFix"/>
<feColorMatrix in="SourceAlpha" type="matrix" values="0 0 0 0 0 0 0 0 0 0 0 0 0 0 0 0 0 0 127 0" result="hardAlpha"/>
<feOffset dy="12"/>
<feGaussianBlur stdDeviation="20"/>
<feComposite in2="hardAlpha" operator="out"/>
<feColorMatrix type="matrix" values="0 0 0 0 0.203922 0 0 0 0 0.368627 0 0 0 0 1 0 0 0 0.4 0"/>
<feBlend mode="normal" in2="BackgroundImageFix" result="effect1_dropShadow_1255_12284"/>
<feBlend mode="normal" in="SourceGraphic" in2="effect1_dropShadow_1255_12284" result="shape"/>
</filter>
<filter id="filter1_d_1255_12284" x="359.773" y="231.887" width="210.828" height="210.828" filterUnits="userSpaceOnUse" color-interpolation-filters="sRGB">
<feFlood flood-opacity="0" result="BackgroundImageFix"/>
<feColorMatrix in="SourceAlpha" type="matrix" values="0 0 0 0 0 0 0 0 0 0 0 0 0 0 0 0 0 0 127 0" result="hardAlpha"/>
<feOffset dy="10"/>
<feGaussianBlur stdDeviation="20"/>
<feComposite in2="hardAlpha" operator="out"/>
<feColorMatrix type="matrix" values="0 0 0 0 0.191667 0 0 0 0 0.310632 0 0 0 0 0.766667 0 0 0 0.6 0"/>
<feBlend mode="normal" in2="BackgroundImageFix" result="effect1_dropShadow_1255_12284"/>
<feBlend mode="normal" in="SourceGraphic" in2="effect1_dropShadow_1255_12284" result="shape"/>
</filter>
<clipPath id="clip0_1255_12284">
<rect width="99.7672" height="99.7672" fill="white" transform="translate(415.793 277.906)"/>
</clipPath>
</defs>
</svg>
