<svg width="12" height="15" viewBox="0 0 12 15" fill="none" xmlns="http://www.w3.org/2000/svg">
<path d="M2.66667 3.49992V1.49992C2.66667 1.32311 2.7369 1.15354 2.86193 1.02851C2.98695 0.90349 3.15652 0.833252 3.33333 0.833252H11.3333C11.5101 0.833252 11.6797 0.90349 11.8047 1.02851C11.9298 1.15354 12 1.32311 12 1.49992V10.8333C12 11.0101 11.9298 11.1796 11.8047 11.3047C11.6797 11.4297 11.5101 11.4999 11.3333 11.4999H9.33333V13.4999C9.33333 13.8679 9.03333 14.1666 8.662 14.1666H0.671333C0.583418 14.1671 0.496265 14.1503 0.414882 14.117C0.333498 14.0837 0.259489 14.0347 0.197106 13.9728C0.134723 13.9108 0.0851953 13.8372 0.0513695 13.756C0.0175437 13.6749 8.62495e-05 13.5878 0 13.4999L0.00200001 4.16659C0.00200001 3.79859 0.302 3.49992 0.673334 3.49992H2.66667ZM1.33533 4.83325L1.33333 12.8333H8V4.83325H1.33533ZM4 3.49992H9.33333V10.1666H10.6667V2.16659H4V3.49992Z" fill="#1E2C4F" fill-opacity="0.92"/>
</svg>
