<svg width="24" height="24" viewBox="0 0 24 24" fill="none" xmlns="http://www.w3.org/2000/svg">
<path d="M4.99983 12.9999C4.99983 7.91187 7.90283 3.56387 11.9998 1.81787C16.0968 3.56387 18.9998 7.91187 18.9998 12.9999C18.9998 13.8229 18.9238 14.6259 18.7798 15.4029L20.7198 17.2349C20.8 17.3108 20.8528 17.4111 20.87 17.5202C20.8872 17.6293 20.8678 17.741 20.8148 17.8379L18.3198 22.4129C18.2826 22.4812 18.23 22.5399 18.1661 22.5843C18.1022 22.6286 18.0289 22.6575 17.9519 22.6686C17.8749 22.6797 17.7964 22.6726 17.7226 22.648C17.6488 22.6234 17.5818 22.5819 17.5268 22.5269L15.2928 20.2929C15.1053 20.1053 14.851 19.9999 14.5858 19.9999H9.41383C9.14863 19.9999 8.89432 20.1053 8.70683 20.2929L6.47283 22.5269C6.41788 22.5819 6.35085 22.6234 6.27706 22.648C6.20327 22.6726 6.12475 22.6797 6.04776 22.6686C5.97077 22.6575 5.89742 22.6286 5.83355 22.5843C5.76967 22.5399 5.71704 22.4812 5.67983 22.4129L3.18483 17.8379C3.13185 17.741 3.11244 17.6293 3.12963 17.5202C3.14681 17.4111 3.19963 17.3108 3.27983 17.2349L5.21983 15.4029C5.07683 14.6259 4.99983 13.8229 4.99983 12.9999ZM6.47583 19.6959L7.29283 18.8789C7.85531 18.3162 8.61824 18 9.41383 17.9999H14.5858C15.3814 18 16.1444 18.3162 16.7068 18.8789L17.5238 19.6959L18.5058 17.8959L17.4058 16.8559C17.1627 16.6263 16.9811 16.3394 16.8775 16.0214C16.7739 15.7035 16.7516 15.3646 16.8128 15.0359C16.9368 14.3719 16.9998 13.6909 16.9998 12.9999C16.9998 9.12987 15.0048 5.69987 11.9998 4.03987C8.99483 5.69987 6.99983 9.12987 6.99983 12.9999C6.99983 13.6909 7.06283 14.3719 7.18683 15.0369C7.24802 15.3656 7.2258 15.7045 7.1222 16.0224C7.01861 16.3404 6.83694 16.6273 6.59383 16.8569L5.49383 17.8959L6.47583 19.6959ZM11.9998 12.9999C11.4694 12.9999 10.9607 12.7892 10.5856 12.4141C10.2105 12.039 9.99983 11.5303 9.99983 10.9999C9.99983 10.4694 10.2105 9.96073 10.5856 9.58566C10.9607 9.21059 11.4694 8.99987 11.9998 8.99987C12.5303 8.99987 13.039 9.21059 13.414 9.58566C13.7891 9.96073 13.9998 10.4694 13.9998 10.9999C13.9998 11.5303 13.7891 12.039 13.414 12.4141C13.039 12.7892 12.5303 12.9999 11.9998 12.9999Z" fill="#345EFF"/>
</svg>
