<svg width="40" height="40" viewBox="0 0 40 40" fill="none" xmlns="http://www.w3.org/2000/svg">
<rect width="40" height="40" rx="20" fill="#345EFF"/>
<g clip-path="url(#clip0_2077_32094)">
<path d="M21.5757 25.2711L16.4657 22.4841C15.9752 22.971 15.3515 23.3018 14.6733 23.4347C13.9951 23.5677 13.2927 23.4969 12.6546 23.2312C12.0166 22.9655 11.4715 22.5169 11.0881 21.9419C10.7046 21.3669 10.5 20.6912 10.5 20.0001C10.5 19.309 10.7046 18.6333 11.0881 18.0583C11.4715 17.4833 12.0166 17.0347 12.6546 16.769C13.2927 16.5033 13.9951 16.4325 14.6733 16.5655C15.3515 16.6984 15.9752 17.0292 16.4657 17.5161L21.5757 14.7291C21.4005 13.9068 21.527 13.049 21.9323 12.3124C22.3376 11.5758 22.9945 11.0096 23.7828 10.7175C24.5712 10.4254 25.4383 10.4269 26.2257 10.7216C27.0131 11.0163 27.6681 11.5846 28.0709 12.3225C28.4737 13.0605 28.5975 13.9188 28.4195 14.7405C28.2415 15.5621 27.7737 16.2923 27.1016 16.7974C26.4295 17.3025 25.5981 17.5488 24.7593 17.4913C23.9206 17.4338 23.1305 17.0763 22.5337 16.4841L17.4237 19.2711C17.5256 19.7518 17.5256 20.2485 17.4237 20.7291L22.5337 23.5161C23.1305 22.924 23.9206 22.5664 24.7593 22.5089C25.5981 22.4514 26.4295 22.6977 27.1016 23.2028C27.7737 23.7079 28.2415 24.4381 28.4195 25.2598C28.5975 26.0814 28.4737 26.9397 28.0709 27.6777C27.6681 28.4156 27.0131 28.9839 26.2257 29.2786C25.4383 29.5733 24.5712 29.5748 23.7828 29.2827C22.9945 28.9906 22.3376 28.4245 21.9323 27.6879C21.527 26.9513 21.4005 26.0934 21.5757 25.2711Z" fill="#345EFF"/>
<path d="M21.5757 25.2711L16.4657 22.4841C15.9752 22.971 15.3515 23.3018 14.6733 23.4347C13.9951 23.5677 13.2927 23.4969 12.6546 23.2312C12.0166 22.9655 11.4715 22.5169 11.0881 21.9419C10.7046 21.3669 10.5 20.6912 10.5 20.0001C10.5 19.309 10.7046 18.6333 11.0881 18.0583C11.4715 17.4833 12.0166 17.0347 12.6546 16.769C13.2927 16.5033 13.9951 16.4325 14.6733 16.5655C15.3515 16.6984 15.9752 17.0292 16.4657 17.5161L21.5757 14.7291C21.4005 13.9068 21.527 13.049 21.9323 12.3124C22.3376 11.5758 22.9945 11.0096 23.7828 10.7175C24.5712 10.4254 25.4383 10.4269 26.2257 10.7216C27.0131 11.0163 27.6681 11.5846 28.0709 12.3225C28.4737 13.0605 28.5975 13.9188 28.4195 14.7405C28.2415 15.5621 27.7737 16.2923 27.1016 16.7974C26.4295 17.3025 25.5981 17.5488 24.7593 17.4913C23.9206 17.4338 23.1305 17.0763 22.5337 16.4841L17.4237 19.2711C17.5256 19.7518 17.5256 20.2485 17.4237 20.7291L22.5337 23.5161C23.1305 22.924 23.9206 22.5664 24.7593 22.5089C25.5981 22.4514 26.4295 22.6977 27.1016 23.2028C27.7737 23.7079 28.2415 24.4381 28.4195 25.2598C28.5975 26.0814 28.4737 26.9397 28.0709 27.6777C27.6681 28.4156 27.0131 28.9839 26.2257 29.2786C25.4383 29.5733 24.5712 29.5748 23.7828 29.2827C22.9945 28.9906 22.3376 28.4245 21.9323 27.6879C21.527 26.9513 21.4005 26.0934 21.5757 25.2711Z" fill="white"/>
</g>
<defs>
<clipPath id="clip0_2077_32094">
<rect width="24" height="24" fill="white" transform="translate(8 8)"/>
</clipPath>
</defs>
</svg>
