<svg width="14" height="19" viewBox="0 0 14 19" fill="none" xmlns="http://www.w3.org/2000/svg">
<path d="M4.08165 15.6666H9.91831C9.36701 16.9852 8.31858 18.0336 6.99998 18.5849C5.68138 18.0336 4.63295 16.9852 4.08165 15.6666ZM12 11.3374L13.6666 13.2274V14.8332H0.333313V13.2274L1.99998 11.3374V6.4999C1.99998 3.5974 4.08665 1.1274 6.99998 0.212402C9.91331 1.1274 12 3.5974 12 6.4999V11.3374ZM6.99998 8.16657C7.44201 8.16657 7.86593 7.99097 8.17849 7.67841C8.49105 7.36585 8.66665 6.94193 8.66665 6.4999C8.66665 6.05788 8.49105 5.63395 8.17849 5.32139C7.86593 5.00883 7.44201 4.83324 6.99998 4.83324C6.55795 4.83324 6.13403 5.00883 5.82147 5.32139C5.50891 5.63395 5.33331 6.05788 5.33331 6.4999C5.33331 6.94193 5.50891 7.36585 5.82147 7.67841C6.13403 7.99097 6.55795 8.16657 6.99998 8.16657Z" fill="#1E2C4F" fill-opacity="0.8"/>
</svg>
