<svg width="36" height="36" viewBox="0 0 36 36" fill="none" xmlns="http://www.w3.org/2000/svg">
<path d="M3.723 24.831C5.77779 22.7762 9.1142 22.7762 11.169 24.831L14.892 28.554L11.169 32.277C9.1142 34.3317 5.77779 34.3317 3.723 32.277C1.66821 30.2222 1.66821 26.8857 3.723 24.831Z" fill="white"/>
<path d="M32.2768 11.169L28.5538 14.892L24.8308 11.169C22.776 9.11425 22.776 5.77784 24.8308 3.72305C26.8856 1.66826 30.222 1.66826 32.2768 3.72305C34.3315 5.77784 34.3315 9.11425 32.2768 11.169Z" fill="white"/>
<path d="M12.0671 23.9326C12.9167 24.7823 13.8225 25.5166 14.7557 26.1337L26.1315 14.7579C25.5155 13.8247 24.7801 12.9189 23.9304 12.0693C23.0991 11.238 22.2138 10.5159 21.3009 9.90796L9.90576 21.3031C10.5137 22.216 11.2358 23.1013 12.0671 23.9326Z" fill="#FFCF01"/>
<path d="M19.6241 8.92975C15.7839 7.00506 11.7601 7.04993 9.40499 9.40608C7.04986 11.7612 7.00397 15.786 8.92866 19.6252L19.6241 8.92975Z" fill="#FFCF01"/>
<path d="M16.4397 27.1036C20.2595 28.9947 24.2507 28.9375 26.5936 26.5947C28.9354 24.2528 28.9936 20.2616 27.1025 16.4408L16.4407 27.1026L16.4397 27.1036Z" fill="#FFCF01"/>
</svg>
