<svg width="149" height="20" viewBox="0 0 149 20" fill="none" xmlns="http://www.w3.org/2000/svg">
<path d="M2.06833 13.7949C3.20988 12.6534 5.06345 12.6534 6.205 13.7949L8.27333 15.8633L6.205 17.9316C5.06345 19.0732 3.20988 19.0732 2.06833 17.9316C0.926783 16.7901 0.926782 14.9365 2.06833 13.7949Z" fill="#345EFF"/>
<path d="M17.9317 6.20505L15.8633 8.27338L13.795 6.20505C12.6535 5.0635 12.6535 3.20994 13.795 2.06839C14.9366 0.926837 16.7901 0.926837 17.9317 2.06839C19.0732 3.20994 19.0732 5.0635 17.9317 6.20505Z" fill="#345EFF"/>
<path d="M6.70416 13.2959C7.17618 13.7679 7.67937 14.1759 8.19785 14.5187L14.5177 8.19883C14.1755 7.68034 13.7669 7.17715 13.2949 6.70513C12.8331 6.24331 12.3412 5.84212 11.8341 5.50439L5.50342 11.835C5.84114 12.3422 6.24233 12.8341 6.70416 13.2959Z" fill="#FFCF01"/>
<path d="M10.9023 4.96108C8.76887 3.89181 6.53342 3.91674 5.22502 5.22571C3.91662 6.53411 3.89112 8.77012 4.96039 10.903L10.9023 4.96108Z" fill="#FFCF01"/>
<path d="M9.1333 15.0576C11.2554 16.1082 13.4727 16.0764 14.7743 14.7748C16.0754 13.4738 16.1077 11.2565 15.0571 9.13379L9.13387 15.057L9.1333 15.0576Z" fill="#FFCF01"/>
<path d="M21.3501 1.20752H24.5222V18.8197H21.3501V1.20752Z" fill="#345EFF"/>
<path d="M39.3902 7.23752V18.5218H36.2181V17.1177C35.4191 18.2312 33.845 18.74 32.5859 18.74C29.6801 18.74 27.04 16.4881 27.04 12.8553C27.04 9.2225 29.6795 6.97119 32.5859 6.97119C33.8931 6.97119 35.4191 7.45568 36.2181 8.59352V7.23752H39.3902ZM36.1212 12.8553C36.1212 11.1123 34.6683 9.94952 33.1911 9.94952C31.5925 9.94952 30.2609 11.1848 30.2609 12.8553C30.2609 14.5258 31.5931 15.7855 33.1911 15.7855C34.789 15.7855 36.1212 14.5751 36.1212 12.8553Z" fill="#345EFF"/>
<path d="M53.4826 7.2373V18.5216H50.3105V16.6811C49.826 18.1584 48.0342 18.788 46.9202 18.788C43.9657 18.788 42.4159 16.8268 42.4402 13.4365V7.2373H45.6123V13.0976C45.6123 14.865 46.6782 15.6646 47.7679 15.6646C48.8576 15.6646 50.3105 15.0588 50.3105 13.0251V7.2373H53.4826Z" fill="#345EFF"/>
<path d="M67.7201 12.4609V18.8199H64.548V12.8088C64.548 10.9706 63.4827 10.1506 62.393 10.1506C61.3033 10.1506 59.8504 10.7717 59.8504 12.883V18.8193H56.6777V7.24484H59.8504V9.18222C60.3343 7.61769 62.1267 6.94678 63.2401 6.94678C66.1947 6.94678 67.7445 8.98333 67.7201 12.4609Z" fill="#345EFF"/>
<path d="M70.0674 12.8315C70.0674 9.24739 72.9732 6.94678 76.2666 6.94678C78.3252 6.94678 79.9719 7.91575 81.0372 9.36865L78.6641 11.0391C78.1552 10.3371 77.2112 9.90131 76.2909 9.90131C74.4992 9.90131 73.2882 11.1848 73.2882 12.8315C73.2882 14.4782 74.4992 15.7854 76.2909 15.7854C77.2112 15.7854 78.1552 15.3497 78.6641 14.6476L81.0372 16.3181C79.9719 17.7954 78.3252 18.74 76.2666 18.74C72.9732 18.74 70.0674 16.415 70.0674 12.8315Z" fill="#345EFF"/>
<path d="M94.3549 12.5139V18.8197H91.1827V12.859C91.1827 11.0361 90.1174 10.223 89.0278 10.223C87.9381 10.223 86.4852 10.8389 86.4852 12.9327V18.8197H83.3125V1.20752H86.4852V9.13953C86.9691 7.68606 88.7852 7.04575 89.8749 7.04575C92.8294 7.04575 94.3792 9.0653 94.3549 12.5139Z" fill="#345EFF"/>
<path d="M109.755 12.8551C109.755 16.4879 107.116 18.7398 104.21 18.7398C102.926 18.7398 101.376 18.2553 100.577 17.1174V18.5216H97.4048V1.20752H100.577V8.59328C101.376 7.45544 102.926 6.97095 104.21 6.97095C107.116 6.97095 109.755 9.22283 109.755 12.8551ZM106.51 12.8551C106.51 11.1846 105.202 9.94928 103.604 9.94928C102.127 9.94928 100.674 11.112 100.674 12.8551C100.674 14.5981 102.054 15.7852 103.604 15.7852C105.154 15.7852 106.51 14.5018 106.51 12.8551Z" fill="#345EFF"/>
<path d="M123.387 13.8968H114.863C115.202 15.2046 116.267 15.9311 117.793 15.9311C118.931 15.9311 120.069 15.4709 120.747 14.6714L122.612 16.5362C121.546 17.9648 119.56 18.74 117.575 18.74C114.112 18.74 111.569 16.3668 111.569 12.8796C111.569 9.39245 114.33 6.94678 117.575 6.94678C120.819 6.94678 123.435 9.22302 123.435 12.6858C123.435 13.0009 123.411 13.3885 123.386 13.8968H123.387ZM120.263 11.8387C120.167 10.5065 119.053 9.70751 117.624 9.70751C116.341 9.70751 115.202 10.3127 114.863 11.8387H120.263Z" fill="#345EFF"/>
<path d="M137.019 13.8968H128.495C128.834 15.2046 129.899 15.9311 131.425 15.9311C132.563 15.9311 133.701 15.4709 134.379 14.6714L136.244 16.5362C135.178 17.9648 133.193 18.74 131.207 18.74C127.744 18.74 125.202 16.3668 125.202 12.8796C125.202 9.39245 127.962 6.94678 131.207 6.94678C134.452 6.94678 137.067 9.22302 137.067 12.6858C137.067 13.0009 137.043 13.3885 137.019 13.8968H137.019ZM133.896 11.8387C133.799 10.5065 132.685 9.70751 131.256 9.70751C129.973 9.70751 128.834 10.3127 128.496 11.8387H133.896Z" fill="#345EFF"/>
<path d="M138.81 14.8896H141.789C141.789 15.5435 142.345 16.2456 143.459 16.2456C144.38 16.2456 145.082 15.858 145.082 15.2046C145.082 14.7201 144.695 14.4782 143.847 14.26L142.345 13.8968C139.44 13.1216 139.053 11.4993 139.053 10.3127C139.053 8.5691 140.869 6.94678 143.484 6.94678C145.542 6.94678 147.964 7.96392 147.939 10.6278H144.912C144.912 9.87694 144.283 9.46555 143.532 9.46555C142.781 9.46555 142.225 9.82877 142.225 10.4096C142.225 10.9422 142.709 11.2086 143.338 11.3786L145.203 11.8625C147.915 12.5889 148.254 14.2844 148.254 15.2046C148.254 17.5778 145.833 18.74 143.508 18.74C141.184 18.74 138.834 17.384 138.81 14.8896Z" fill="#345EFF"/>
</svg>
